<?xml version="1.0" encoding="UTF-8" standalone="no"?>
<svg
   xmlns:dc="http://purl.org/dc/elements/1.1/"
   xmlns:cc="http://creativecommons.org/ns#"
   xmlns:rdf="http://www.w3.org/1999/02/22-rdf-syntax-ns#"
   xmlns:svg="http://www.w3.org/2000/svg"
   xmlns="http://www.w3.org/2000/svg"
   viewBox="0 0 387.19388 288.94348"
   height="100%"
   width="100%"
   xml:space="preserve"
   id="svg2"
   version="1.1">
  <metadata id="metadata8">
    <rdf:RDF>
      <cc:Work rdf:about="">
        <dc:format>image/svg+xml</dc:format>
        <dc:type rdf:resource="http://purl.org/dc/dcmitype/StillImage" />
      </cc:Work>
    </rdf:RDF>
  </metadata>
  <defs id="defs6">
    <clipPath id="clipPath14" clipPathUnits="userSpaceOnUse"><path
       id="path12"
       d="M 0,0 H 612 V 792 H 0 Z" />
    </clipPath>
    <clipPath id="clipPath136" clipPathUnits="userSpaceOnUse"><path
       id="path158"
       d="M 188.2988,482.3407 H 422.4416 V 831.4204 H 188.2988 Z" />
    </clipPath>
  </defs>

  <g clip-path="url(#clipPath14)" transform="matrix(1.3333333,0,0,-1.3333333,-191.98107,888.01107)" id="g65">
    <!-- Thermal dust -->
    <g id="g142">
      <g clip-path="url(#clipPath136)" id="g144">
        <g transform="matrix(0.93373,0,0,0.93373,144,445.089)" id="g150"><path
           id="path152"
           style="fill:none;stroke:#ff5439;stroke-width:2.00003004;stroke-linecap:square;stroke-linejoin:round;stroke-miterlimit:10;stroke-dasharray:none;stroke-opacity:1"
           d="m 47.10008,41.88919 2.53678,1.19313 2.53679,1.19425 2.53567,1.19311 2.53676,1.19203 2.53679,1.19205 2.53567,1.19094 2.53678,1.19091 2.53677,1.18985 2.53567,1.18982 2.53678,1.18874 2.53679,1.18873 2.53567,1.18655 2.53676,1.18654 2.53679,1.18653 2.53567,1.18434 2.53678,1.18434 2.53679,1.18216 2.53567,1.18213 2.53676,1.18106 2.53679,1.17995 2.53569,1.17883 2.5368,1.17665 2.5356,1.17667 2.5368,1.17444 2.5368,1.17336 2.5357,1.17115 2.5367,1.17006 2.5368,1.16786 2.5357,1.16678 2.5368,1.16565 2.5367,1.16238 2.5357,1.16126 2.5368,1.15799 2.5368,1.15686 2.5356,1.15359 2.5368,1.15138 2.5368,1.14917 2.5357,1.14699 2.5368,1.1426 2.5367,1.14039 2.5357,1.1371 2.5368,1.13381 2.5368,1.12941 2.5357,1.12721 2.5367,1.12172 2.5368,1.11842 2.5357,1.11403 2.5367,1.10963 2.5357,1.10415 2.5368,1.09971 2.5368,1.0943 2.5357,1.0876 2.5367,1.0833 2.5368,1.0756 2.5357,1.0701 2.5368,1.0623 2.5367,1.0548 2.5357,1.0481 2.5368,1.0393 2.5367,1.0305 2.5357,1.0206 2.5368,1.0119 2.5368,1.002 2.5357,0.991 2.5367,0.98 2.5368,0.9667 2.5357,0.9559 2.5368,0.9404 2.5368,0.9284 2.5356,0.9119 2.5368,0.8965 2.5368,0.88 2.5357,0.8613 2.5367,0.8427 2.5368,0.8229 2.5357,0.802 2.5368,0.7789 2.5356,0.7559 2.5368,0.7306 2.5368,0.7031 2.5357,0.6746 2.5367,0.6449 2.5368,0.6119 2.5357,0.5779 2.5368,0.5428 2.5367,0.5031 2.5357,0.4626 2.5368,0.4186 2.5368,0.3724 2.5357,0.323 2.5367,0.2703 2.5368,0.2142 2.5357,0.156 2.5368,0.0912 2.5367,0.0242 2.5357,-0.0473 2.5368,-0.123 2.5368,-0.2044 2.5356,-0.2911" />
        </g>
        <g transform="matrix(0.93373,0,0,0.93373,144,445.089)" id="g788"><path
           id="path790"
           style="fill:none;stroke:#ff5439;stroke-width:2;stroke-linecap:square;stroke-linejoin:round;stroke-miterlimit:10;stroke-dasharray:none;stroke-opacity:1"
           d="M 50.173,229.6776 H 62.17242" />
        </g>
        <g transform="matrix(0.93373,0,0,0.93373,144,445.089)" id="g792"><text
           id="text796"
           style="font-variant:normal;font-weight:normal;font-size:12px;font-family:'Source Sans Pro',Helvetica,sans-serif;fill:#ff5439;fill-opacity:1;fill-rule:nonzero;stroke:none"
           transform="matrix(1,0,0,-1,71.773,225.475)"><tspan
             id="tspan794"
             y="0"
             x="0">Thermal Dust</tspan></text>
        </g>
      </g>
    </g>
  </g>
</svg>
