<?xml version="1.0" encoding="UTF-8" standalone="no"?>
<svg
   xmlns:dc="http://purl.org/dc/elements/1.1/"
   xmlns:cc="http://creativecommons.org/ns#"
   xmlns:rdf="http://www.w3.org/1999/02/22-rdf-syntax-ns#"
   xmlns:svg="http://www.w3.org/2000/svg"
   xmlns="http://www.w3.org/2000/svg"
   viewBox="0 0 387.19388 288.94348"
   height="100%"
   width="100%"
   xml:space="preserve"
   id="svg2"
   version="1.1">
  <metadata id="metadata8">
    <rdf:RDF>
      <cc:Work rdf:about="">
        <dc:format>image/svg+xml</dc:format>
        <dc:type rdf:resource="http://purl.org/dc/dcmitype/StillImage" />
      </cc:Work>
    </rdf:RDF>
  </metadata>
  <defs id="defs6">
    <clipPath id="clipPath14" clipPathUnits="userSpaceOnUse"><path
       id="path12"
       d="M 0,0 H 612 V 792 H 0 Z" />
    </clipPath>
    <clipPath id="clipPath100" clipPathUnits="userSpaceOnUse"><path
       id="path98"
       d="M 187.9788,481.8407 H 422.4416 V 631.4204 H 187.9788 Z" /></clipPath>
  </defs>

  <g clip-path="url(#clipPath14)" transform="matrix(1.3333333,0,0,-1.3333333,-191.98107,888.01107)" id="g67">
    <!-- SPIDER 94 GHz -->
    <g id="g94">
      <g clip-path="url(#clipPath100)" id="g96">
        <g transform="matrix(0.93373,0,0,0.93373,144,445.089)" id="g102"><path
           id="path104"
           style="fill:#aabbf3;fill-opacity:0.75;fill-rule:nonzero"
           d="M 157.6218,39.36012 V 199.5571 h 13.1815 V 39.36012 Z" />
        </g>
      </g>
    </g>

    <!-- SPIDER 150 GHz -->
    <g id="g106">
      <g clip-path="url(#clipPath100)" id="g108">
        <g transform="matrix(0.93373,0,0,0.93373,144,445.089)" id="g114"><path
           id="path116"
           style="fill:#aabbf3;fill-opacity:0.75;fill-rule:nonzero"
           d="M 182.1337,39.36012 V 199.5571 h 13.1816 V 39.36012 Z" />
        </g>
      </g>
    </g>

    <!-- SPIDER 285 GHz -->
    <g id="g118">
      <g clip-path="url(#clipPath100)" id="g120">
        <g transform="matrix(0.93373,0,0,0.93373,144,445.089)" id="g126"><path
           id="path128"
           style="fill:#aabbf3;fill-opacity:0.75;fill-rule:nonzero"
           d="M 214.8701,39.36012 V 199.5571 h 13.1815 V 39.36012 Z" />
        </g>
      </g>
    </g>

    <g transform="matrix(0.93373,0,0,0.93373,144,445.089)" id="g834"><circle
       id="path836"
       style="fill:#aabbf3;fill-opacity:0.75;fill-rule:nonzero"
       cx="223.6462" cy="229.3775" r="4.5" />
    </g>
    <g transform="matrix(0.93373,0,0,0.93373,144,445.089)" id="g838"><text
       id="text842"
       style="font-variant:normal;font-weight:normal;font-size:12px;font-family:'Source Sans Pro',Helvetica,sans-serif;fill:#aabbf3;fill-opacity:0.75;fill-rule:nonzero;stroke:none"
       transform="matrix(1,0,0,-1,235.044,225.475)">SPIDER</text><text
       id="text842"
       style="font-variant:normal;font-weight:normal;font-size:8px;font-family:'Source Sans Pro',Helvetica,sans-serif;fill:#aabbf3;fill-opacity:0.75;fill-rule:nonzero;stroke:none"
       transform="matrix(1,0,0,-1,160.244,200.475)">94</text><text
       id="text842"
       style="font-variant:normal;font-weight:normal;font-size:8px;font-family:'Source Sans Pro',Helvetica,sans-serif;fill:#aabbf3;fill-opacity:0.75;fill-rule:nonzero;stroke:none"
       transform="matrix(1,0,0,-1,182.644,200.475)">150</text><text
       id="text842"
       style="font-variant:normal;font-weight:normal;font-size:8px;font-family:'Source Sans Pro',Helvetica,sans-serif;fill:#aabbf3;fill-opacity:0.75;fill-rule:nonzero;stroke:none"
       transform="matrix(1,0,0,-1,215.344,200.475)">285</text>
    </g>
  </g>
</svg>
