<?xml version="1.0" encoding="UTF-8" standalone="no"?>
<svg
   xmlns:dc="http://purl.org/dc/elements/1.1/"
   xmlns:cc="http://creativecommons.org/ns#"
   xmlns:rdf="http://www.w3.org/1999/02/22-rdf-syntax-ns#"
   xmlns:svg="http://www.w3.org/2000/svg"
   xmlns="http://www.w3.org/2000/svg"
   viewBox="0 0 387.19388 288.94348"
   height="100%"
   width="100%"
   xml:space="preserve"
   id="svg2"
   version="1.1">
  <metadata id="metadata8">
    <rdf:RDF>
      <cc:Work rdf:about="">
        <dc:format>image/svg+xml</dc:format>
        <dc:type rdf:resource="http://purl.org/dc/dcmitype/StillImage" />
      </cc:Work>
    </rdf:RDF>
  </metadata>
  <defs id="defs6">
    <clipPath id="clipPath14" clipPathUnits="userSpaceOnUse"><path
       id="path12"
       d="M 0,0 H 612 V 792 H 0 Z" />
    </clipPath>
    <clipPath id="clipPath136" clipPathUnits="userSpaceOnUse"><path
       id="path158"
       d="M 188.2988,482.3407 H 422.4416 V 831.4204 H 188.2988 Z" />
    </clipPath>
  </defs>

  <g clip-path="url(#clipPath14)" transform="matrix(1.3333333,0,0,-1.3333333,-191.98107,888.01107)" id="g60">
    <!-- Synchrotron -->
    <g id="g130">
      <g clip-path="url(#clipPath136)" id="g132">
        <g transform="matrix(0.93373,0,0,0.93373,144,445.089)" id="g138"><path
           id="path140"
           style="fill:none;stroke:#4169e1;stroke-width:2.00003004;stroke-linecap:square;stroke-linejoin:round;stroke-miterlimit:10;stroke-dasharray:none;stroke-opacity:1"
           d="m 47.10008,191.3942 2.53678,-2.4786 2.53679,-2.4785 2.53567,-2.4786 2.53676,-2.4774 2.53679,-2.4786 2.53567,-2.4785 2.53678,-2.4786 2.53677,-2.4785 2.53567,-2.4785 2.53678,-2.4775 2.53679,-2.4785 2.53567,-2.4786 2.53676,-2.4785 2.53679,-2.4786 2.53567,-2.4785 2.53678,-2.4786 2.53679,-2.4774 2.53567,-2.4786 2.53676,-2.4785 2.53679,-2.4786 2.53569,-2.4785 2.5368,-2.4786 2.5356,-2.4774 2.5368,-2.4786 2.5368,-2.4785 2.5357,-2.4786 2.5367,-2.4785 2.5368,-2.4786 2.5357,-2.4785 2.5368,-2.4775 2.5367,-2.4785 2.5357,-2.4786 2.5368,-2.4785 2.5368,-2.4786 2.5356,-2.4785 2.5368,-2.4774 2.5368,-2.4786 2.5357,-2.47854 2.5368,-2.47855 2.5367,-2.47854 2.5357,-2.47855 2.5368,-2.47855 2.5368,-2.47744 2.5357,-2.47855 2.5367,-2.47856 2.5368,-2.47855 2.5357,-2.47854 2.5367,-2.47855 2.5357,-2.47745 2.5368,-2.47854 2.5368,-2.47855 2.5357,-2.47854 2.5367,-2.47855 2.5368,-2.47855 2.5357,-2.47856 2.5368,-2.47743 2.5367,-2.47855 2.5357,-2.47856 2.5368,-2.47855 2.5367,-2.47854 2.5357,-2.47855 1.1185,-1.09206" />
        </g>
      </g>
      <g transform="matrix(0.93373,0,0,0.93373,144,445.089)" id="g778"><path
         id="path780"
         style="fill:none;stroke:#4169e1;stroke-width:2;stroke-linecap:square;stroke-linejoin:round;stroke-miterlimit:10;stroke-dasharray:none;stroke-opacity:1"
         d="M 50.173,212.5168 H 62.17242" />
      </g>
      <g transform="matrix(0.93373,0,0,0.93373,144,445.089)" id="g782"><text
         id="text786"
         style="font-variant:normal;font-weight:normal;font-size:12px;font-family:'Source Sans Pro',Helvetica,sans-serif;fill:#4169e1;fill-opacity:1;fill-rule:nonzero;stroke:none"
         transform="matrix(1,0,0,-1,71.773,208.314)"><tspan
           id="tspan784"
           y="0"
           x="0">Synchrotron</tspan></text>
      </g>
    </g>
  </g>
</svg>
