<?xml version="1.0" encoding="UTF-8" standalone="no"?>
<svg
   xmlns:dc="http://purl.org/dc/elements/1.1/"
   xmlns:cc="http://creativecommons.org/ns#"
   xmlns:rdf="http://www.w3.org/1999/02/22-rdf-syntax-ns#"
   xmlns:svg="http://www.w3.org/2000/svg"
   xmlns="http://www.w3.org/2000/svg"
   id="svg5091"
   version="1.1"
   viewBox="0 0 105.83333 52.916668"
   height="100%"
   width="100%">
  <defs
     id="defs5085" />
  <metadata
     id="metadata5088">
    <rdf:RDF>
      <cc:Work
         rdf:about="">
        <dc:format>image/svg+xml</dc:format>
        <dc:type
           rdf:resource="http://purl.org/dc/dcmitype/StillImage" />
        <dc:title></dc:title>
      </cc:Work>
    </rdf:RDF>
  </metadata>
  <g
     transform="translate(0,-244.08331)"
     id="layer1">
    <path
       d="m 0.38409383,258.7664 2.12132027,2.12132 m 8.2562219,-3.18198 4.242639,4.24264 m 6.1349,-5.3033 6.363962,6.36396 m 6.134898,-5.3033 4.24264,4.24264 m 8.256224,-3.18198 2.12132,2.12132 m 9.316884,0 2.12132,-2.12132 m 8.256225,3.18198 4.24264,-4.24264 m 18.633767,4.24264 4.24264,-4.24264 m 8.256225,3.18198 2.12132,-2.12132 m -27.119052,4.24264 6.363962,-6.36396 m -84.31005438,12.83591 2.12132028,2.12132 m 8.2562221,-3.18198 4.24264,4.24264 m 6.1349,-5.3033 6.363962,6.36396 m 6.134898,-5.3033 4.24264,4.24264 m 8.256224,-3.18198 2.12132,2.12132 m 9.316884,0 2.12132,-2.12132 m 8.256225,3.18198 4.24264,-4.24264 m 18.633767,4.24264 4.24264,-4.24264 m 8.256222,3.18198 2.12132,-2.12132 m -27.119049,4.24264 6.363962,-6.36396 m -84.3100575,12.8359 2.1213203,2.12132 m 8.2562222,-3.18198 4.24264,4.24264 m 6.1349,-5.3033 6.363962,6.36396 m 6.134898,-5.3033 4.24264,4.24264 m 8.256224,-3.18198 2.12132,2.12132 m 9.316884,0 2.12132,-2.12132 m 8.256225,3.18198 4.24264,-4.24264 m 18.633767,4.24264 4.24264,-4.24264 m 8.256222,3.18198 2.12132,-2.12132 m -27.119049,4.24264 6.363962,-6.36396 m -84.31004917,12.8359 2.12132037,2.12132 m 8.2562218,-3.18198 4.24264,4.24264 m 6.1349,-5.3033 6.363962,6.36396 m 6.134898,-5.3033 4.24264,4.24264 m 8.256224,-3.18198 2.12132,2.12132 m 9.316884,0 2.12132,-2.12132 m 8.256225,3.18198 4.24264,-4.24264 m 18.633767,4.24264 4.24264,-4.24264 m 8.256204,3.18198 2.12132,-2.12132 m -27.119031,4.24264 6.363962,-6.36396 M 0.38409383,248.05182 2.5054142,250.17314 m 8.2562218,-3.18198 4.24264,4.24264 m 6.1349,-5.3033 6.363962,6.36396 m 6.134898,-5.3033 4.24264,4.24264 m 8.256224,-3.18198 2.12132,2.12132 m 9.316884,0 2.12132,-2.12132 m 8.256225,3.18198 4.24264,-4.24264 m 18.633767,4.24264 4.24264,-4.24264 m 8.256224,3.18198 2.12132,-2.12132 m -27.119051,4.24264 6.363962,-6.36396"
       style="fill:none;stroke:#d2d2d2;stroke-width:0.31747782px;stroke-linecap:butt;stroke-linejoin:miter;stroke-opacity:1"
       id="path5295" />
  </g>
</svg>
