<?xml version="1.0" encoding="UTF-8" standalone="no"?>
<!-- Created with Inkscape (http://www.inkscape.org/) -->

<svg
   xmlns:dc="http://purl.org/dc/elements/1.1/"
   xmlns:cc="http://creativecommons.org/ns#"
   xmlns:rdf="http://www.w3.org/1999/02/22-rdf-syntax-ns#"
   xmlns:svg="http://www.w3.org/2000/svg"
   xmlns="http://www.w3.org/2000/svg"
   xmlns:sodipodi="http://sodipodi.sourceforge.net/DTD/sodipodi-0.dtd"
   xmlns:inkscape="http://www.inkscape.org/namespaces/inkscape"
   width="100%"
   height="100%"
   viewBox="0 0 105.83333 52.916668"
   version="1.1"
   id="svg5091"
   sodipodi:docname="ebmodes_e.svg"
   inkscape:version="0.92.2 5c3e80d, 2017-08-06">
  <defs
     id="defs5085" />
  <sodipodi:namedview
     id="base"
     pagecolor="#ffffff"
     bordercolor="#666666"
     borderopacity="1.0"
     inkscape:pageopacity="0.0"
     inkscape:pageshadow="2"
     inkscape:zoom="2.8"
     inkscape:cx="167.67857"
     inkscape:cy="77.067004"
     inkscape:document-units="mm"
     inkscape:current-layer="layer1"
     showgrid="false"
     showborder="true"
     inkscape:showpageshadow="true"
     units="px"
     inkscape:window-width="1920"
     inkscape:window-height="1058"
     inkscape:window-x="0"
     inkscape:window-y="0"
     inkscape:window-maximized="1" />
  <metadata
     id="metadata5088">
    <rdf:RDF>
      <cc:Work
         rdf:about="">
        <dc:format>image/svg+xml</dc:format>
        <dc:type
           rdf:resource="http://purl.org/dc/dcmitype/StillImage" />
        <dc:title></dc:title>
      </cc:Work>
    </rdf:RDF>
  </metadata>
  <g
     inkscape:label="Layer 1"
     inkscape:groupmode="layer"
     id="layer1"
     transform="translate(0,-244.08331)">
    <path
       id="path5295"
       style="fill:none;stroke:#d2d2d2;stroke-width:0.31747782px;stroke-linecap:butt;stroke-linejoin:miter;stroke-opacity:1"
       d="m 76.726155,249.11248 h 9 m 16.876415,0 h 3 m -15.938209,0 h 6 m -28.876407,0 h 6 m -15.938205,0 h 3 m -12.938204,-1.5 v 3 m -11.438204,-4.5 v 6 m -11.4382,-7.5 2e-6,9 m -11.438202,-7.5 v 6 m -11.4382021,-4.5 2e-7,3 m 75.5674259,41.35833 h 9 m 16.876395,0 h 3 m -15.938189,0 h 6 m -28.876407,0 h 6 m -15.938205,0 h 3 m -12.938204,-1.5 v 3 m -11.438204,-4.5 v 6 m -11.4382,-7.5 2e-6,9 m -11.438202,-7.5 v 6 m -11.4382021,-4.5 2e-7,3 M 76.726157,281.25623 h 9 m 16.876413,0 h 3 m -15.938207,0 h 6 m -28.876407,0 h 6 m -15.938205,0 h 3 m -12.938204,-1.5 v 3 m -11.438204,-4.5 v 6 m -11.4382,-7.5 2e-6,9 m -11.438202,-7.5 v 6 m -11.4382025,-4.5 3e-7,3 M 76.726157,270.54165 h 9 m 16.876413,0 h 3 m -15.938207,0 h 6 m -28.876407,0 h 6 m -15.938205,0 h 3 m -12.938204,-1.5 v 3 m -11.438204,-4.5 v 6 m -11.4382,-7.5 2e-6,9 m -11.438202,-7.5 v 6 m -11.4382023,-4.5 2e-7,3 M 76.726154,259.82706 h 9 m 16.876416,0 h 3 m -15.93821,0 h 6 m -28.876407,0 h 6 m -15.938205,0 h 3 m -12.938204,-1.5 v 3 m -11.438204,-4.5 v 6 m -11.4382,-7.5 2e-6,9 m -11.438201,-7.5 -10e-7,6 m -11.4382011,-4.5 2e-7,3"
       inkscape:connector-curvature="0" />
  </g>
</svg>
