<?xml version="1.0" encoding="UTF-8" standalone="no"?>
<svg
   xmlns:dc="http://purl.org/dc/elements/1.1/"
   xmlns:cc="http://creativecommons.org/ns#"
   xmlns:rdf="http://www.w3.org/1999/02/22-rdf-syntax-ns#"
   xmlns:svg="http://www.w3.org/2000/svg"
   xmlns="http://www.w3.org/2000/svg"
   viewBox="0 0 567.72107 342.03174"
   height="100%"
   width="100%"
   xml:space="preserve"
   id="svg2"
   version="1.1">
  <metadata id="metadata8">
    <rdf:RDF>
      <cc:Work rdf:about="">
        <dc:format>image/svg+xml</dc:format>
        <dc:type rdf:resource="http://purl.org/dc/dcmitype/StillImage" />
      </cc:Work>
    </rdf:RDF>
  </metadata>
  <defs id="defs6">
    <clipPath id="clipPath14" clipPathUnits="userSpaceOnUse"><path
       id="path12"
       d="M 0,0 H 612 V 792 H 0 Z" />
    </clipPath>
    <clipPath id="clipPath76" clipPathUnits="userSpaceOnUse"><path
       id="path74"
       d="M 123.6904,353.1703 H 497.1442 V 573.4561 H 123.6904 Z" />
    </clipPath>
    <clipPath id="clipPath160" clipPathUnits="userSpaceOnUse"><path
       id="path158"
       d="M 72,316.341 H 504.0227 V 580.3366 H 72 Z" />
    </clipPath>
  </defs>

  <g clip-path="url(#clipPath14)" transform="matrix(1.3333333,0,0,-1.3333333,-101.34387,771.112)" id="g22">
    <!-- Lensing spectrum -->
    <g id="g70">
      <g clip-path="url(#clipPath76)" id="g72">
        <g transform="matrix(0.95609,0,0,0.95609,72,316.341)" id="g78"><path
           id="path80"
           style="fill:none;stroke:#808080;stroke-width:1.00002003;stroke-linecap:butt;stroke-linejoin:round;stroke-miterlimit:10;stroke-dasharray:2.98883, 1.99255;stroke-dashoffset:0;stroke-opacity:1"
           d="m 97.54776,38.28014 5.55254,2.32585 15.7854,6.76545 12.8981,5.61629 10.9052,4.80329 17.7783,7.92564 14.1967,6.40401 17.0598,7.77183 17.7794,8.17943 17.341,8.04977 18.7957,8.8013 20.3524,9.5999 66.912,31.6762 9.0155,4.3573 7.4532,3.6607 6.2469,3.1256 6.1964,3.1652 6.1173,3.1916 11.5599,6.1151 4.8099,2.5093 4.1914,2.1346 3.6595,1.8029 2.9115,1.3821 3.0707,1.3898 2.6796,1.1514 2.5818,1.0459 2.2467,0.8591 2.6511,0.9515 2.328,0.78 2.4741,0.7746 2.3907,0.6998 3.1355,0.858 10.2603,2.728 2.6038,0.7844 2.1819,0.7119 2.2775,0.802 2.361,0.8889 3.1784,1.2568 3.4223,1.3656 v 0" />
        </g>
      </g>
    </g>
    <!-- Main plot -->
    <g id="g154">
      <g clip-path="url(#clipPath160)" id="g156">
        <g transform="matrix(0.8864771,0.3581513,-0.3581513,0.8864771,96.29069,283.2273)" id="g1062"><text
           id="text1066"
           style="font-variant:normal;font-weight:normal;font-size:11.9552002px;font-family:'Source Sans Pro',Helvetica,sans-serif;fill:#808080;fill-opacity:1;fill-rule:nonzero;stroke:none"
           transform="matrix(1,0,0,-1,101.794,48.037)"><tspan
             id="tspan1064"
             y="0"
             x="0 6.0015106 11.883469 18.064306 23.193089 26.57641 32.757248">Lensing</tspan></text>
        </g>
      </g>
    </g>
  </g>
</svg>
