<?xml version="1.0" encoding="UTF-8" standalone="no"?>
<svg
   xmlns:dc="http://purl.org/dc/elements/1.1/"
   xmlns:cc="http://creativecommons.org/ns#"
   xmlns:rdf="http://www.w3.org/1999/02/22-rdf-syntax-ns#"
   xmlns:svg="http://www.w3.org/2000/svg"
   xmlns="http://www.w3.org/2000/svg"
   xmlns:xlink="http://www.w3.org/1999/xlink"
   viewBox="0 30 580.57849 419.20279"
   height="100%"
   width="100%"
   xml:space="preserve"
   id="svg2"
   version="1.1">
  <metadata id="metadata8">
    <rdf:RDF>
      <cc:Work rdf:about="">
        <dc:format>image/svg+xml</dc:format>
        <dc:type rdf:resource="http://purl.org/dc/dcmitype/StillImage" />
      </cc:Work>
    </rdf:RDF>
  </metadata>
  <defs id="defs6">
    <clipPath id="clipPath40" clipPathUnits="userSpaceOnUse"><path
         id="path38"
         d="M 0,0 H 612 V 792 H 0 Z" />
    </clipPath>
    <clipPath id="clipPath46" clipPathUnits="userSpaceOnUse"><path
         id="path44"
         d="M 72,269 H 505 V 586 H 72 Z" />
    </clipPath>
    <clipPath id="clipPath66" clipPathUnits="userSpaceOnUse"><path
         id="path64"
         d="m 80.97613,325.9682 h 411.3321 V 532.6575 H 80.97613 Z" />
    </clipPath>
  </defs>
  <g clip-path="url(#clipPath14)" transform="matrix(1.3333333,0,0,-1.3333333,-93.926973,779.5164)" id="g10">
    <g clip-path="url(#clipPath40)" id="g36">
      <g id="g14028">
        <g id="g14026" clip-path="url(#clipPath46)">
          <g id="g13858">
            <g id="g13856" clip-path="url(#clipPath66)">
              <g id="g4932" transform="matrix(0.86723,0,0,0.86723,278.2406,349.2207)"><path
                 id="path4934"
                 style="fill:#4169e1;fill-opacity:1;fill-rule:nonzero"
                 d="m 0,-1.5 c -4.8365123,0.6610476 -9.748044,0.89888437 -14.570687,1.71323432 -5.795568,2.60513038 -12.524722,1.00752098 -18.334588,3.39343578 -4.657723,0.5634884 -8.234327,3.8869619 -11.909194,6.3401389 -2.226548,4.308565 -6.125064,8.787309 -4.62334,14.148113 0.927616,4.881427 2.700639,9.510992 2.895838,14.490504 0.337335,5.280104 -0.562101,10.602402 0.405292,15.805166 0.952009,4.968341 1.124122,10.667046 4.444208,14.713154 3.308739,3.559108 8.233125,4.161489 12.814763,4.408768 4.329367,-0.644725 8.208982,1.145054 12.236636,2.659659 4.120908,-0.209961 8.0625154,1.454472 12.1834323,0.241994 7.9202446,-0.577216 15.8987217,-0.334727 23.8226547,0.02175 4.251221,1.177615 8.525006,0.58967 12.689931,-0.55679 3.867316,-0.06476 7.263914,-3.009422 11.104897,-0.941763 4.062895,-0.02956 8.934906,-0.242771 11.934146,-2.976647 1.780765,-4.032176 5.503028,-6.322781 5.494715,-11.396904 1.949364,-3.811134 3.922519,-7.646123 2.39194,-12.240561 -0.95138,-4.476994 -1.236652,-9.52179 -3.239404,-13.46502 -1.035092,-4.71355 -1.2634,-9.500928 -1.961716,-14.319937 C 56.677422,15.703038 53.75917,11.420831 50.836451,7.4504619 48.210452,3.5026406 43.43983,1.9134895 38.946479,0.97726986 34.931475,0.48707107 30.994221,-1.0844792 26.878287,-0.74014817 22.922974,-0.88879075 19.055625,-1.5834605 15.105281,-1.4254221 10.094877,-0.92178433 5.0240944,-1.3817664 0,-1.5 Z M 0.53320312,1.6308594 C 5.8115439,1.9740449 11.179929,2.0789262 16.496114,1.655794 c 4.052155,0.182383 8.109132,0.8029753 12.19751,0.6981994 3.966186,0.4887837 7.878545,1.3258399 11.766166,2.3031497 4.764013,0.7185146 8.054143,4.3359131 10.29584,8.2514349 3.444997,4.175367 4.661422,9.627881 4.636173,15.049132 0.423995,4.312681 1.298487,8.388291 2.97102,12.389433 0.613451,4.468899 2.055736,8.913772 1.775553,13.459036 -3.151121,3.42701 -1.917103,9.101475 -5.192465,12.143069 -1.920869,2.563594 -2.339853,5.556293 -6.253353,5.215971 -3.835305,2.045676 -8.076364,-1.239581 -12.034727,0.220259 -3.764196,1.731738 -8.005021,1.85198 -12.046935,2.591649 -4.141346,-0.56563 -8.279598,-1.016485 -12.484913,-1.008942 -7.0797011,0.07411 -14.18525,-0.339532 -21.1741682,0.752769 -4.0670778,-0.991916 -8.4935438,-0.255231 -12.1979628,-2.716255 -3.872695,-1.254317 -8.0018,-0.486308 -11.984112,-0.981298 -3.885129,-1.084208 -8.068447,-3.832449 -8.353009,-8.495701 -1.323412,-5.100045 -2.231889,-10.360222 -1.736059,-15.640652 -0.31872,-4.703604 0.489504,-9.564806 -1.21691,-13.964619 -0.14233,-4.484204 -3.406286,-9.891247 -0.957,-13.853623 1.36044,-5.245206 5.46137,-8.2487199 10.019805,-10.639729 4.13649,-1.412131 8.487356,-2.4351827 12.859019,-2.3350722 4.077544,0.03278 7.780702,-1.8180864 11.742039,-2.2193373 3.7869312,-0.5587353 7.6315821,-0.6933027 11.40557812,-1.2438081 z" />
              </g>
            </g>
          </g>
          <g id="g4930">
            <g id="g4806" transform="matrix(0.86723,0,0,0.86723,72,269.011)"><path
               id="path4804"
               style="fill:none;stroke:#4169e1;stroke-width:5.00006008;stroke-linecap:square;stroke-linejoin:round;stroke-miterlimit:10;stroke-dasharray:none;stroke-opacity:1"
               d="M 20.69409,330.1203 H 32.69461" />
            </g>
            <g id="g4816" transform="matrix(0.86723,0,0,0.86723,72,269.011)"><text
               id="text4810"
               style="font-variant:normal;font-weight:normal;font-size:12px;font-family:'Source Sans Pro',Helvetica,sans-serif;fill:#acacac;fill-opacity:1;fill-rule:nonzero;stroke:none"
               transform="matrix(1,0,0,-1,42.294,325.916)"><tspan
                 id="tspan4808"
                 y="0"
                 x="0">SPIDER</tspan></text>
            </g>
          </g>
        </g>
      </g>
    </g>
  </g>
</svg>
