<?xml version="1.0" encoding="UTF-8" standalone="no"?>
<svg
   xmlns:dc="http://purl.org/dc/elements/1.1/"
   xmlns:cc="http://creativecommons.org/ns#"
   xmlns:rdf="http://www.w3.org/1999/02/22-rdf-syntax-ns#"
   xmlns:svg="http://www.w3.org/2000/svg"
   xmlns="http://www.w3.org/2000/svg"
   xmlns:xlink="http://www.w3.org/1999/xlink"
   viewBox="0 0 459.20239 316.88052"
   height="100%"
   width="100%"
   xml:space="preserve"
   id="svg2"
   version="1.1">
  <metadata id="metadata8">
    <rdf:RDF>
      <cc:Work rdf:about="">
        <dc:format>image/svg+xml</dc:format>
        <dc:type rdf:resource="http://purl.org/dc/dcmitype/StillImage" />
      </cc:Work>
    </rdf:RDF>
  </metadata>
  <defs>
    <clipPath id="clipPath14" clipPathUnits="userSpaceOnUse"><path
         id="path12"
         d="M 0,0 H 612 V 792 H 0 Z" />
    </clipPath>
  </defs>
  <g clip-path="url(#clipPath14)" transform="matrix(1.3333333,0,0,-1.3333333,-204.12547,891.96867)" id="g2">
    <g id="g128" transform="matrix(279.1197,0,0,178.0796,201.941,467.868)"><path
      id="path7511"
      style="fill:#b3b3b3;fill-opacity:0.5"
      d="m 0.03429334,0.00303235 c -0.0011055,0.03336808 -0.0016649,0.0746361 -0.0024511,0.18081526 -8.0808e-4,0.10914534 -0.0011306,0.12813231 -0.0021977,0.12938006 -0.001064,0.001244 -0.0013856,0.0182595 -0.002155,0.11399605 -4.9739e-4,0.0618935 -0.0012452,0.1231469 -0.0016618,0.1361186 -4.1661e-4,0.0129717 -0.0011636,0.0354111 -0.0016599,0.0498652 -4.9633e-4,0.0144542 -0.0013209,0.0405323 -0.0018324,0.0579515 -5.1149e-4,0.0174191 -0.0014632,0.0401617 -0.0021149,0.0505391 -6.5169e-4,0.0103774 -0.001431,0.0246294 -0.0017317,0.0316712 -8.6936e-4,0.0203548 -0.0050512,0.069012 -0.0068684,0.0799175 -7.1626e-4,0.004298 -0.0013023,0.008943 -0.0013023,0.0103217 0,0.00395 -0.00582142,0.0343209 -0.00818236,0.0426884 L 0,0.89386639 V 0.94693319 1 H 0.5 1 V 0.9700135 C 1,0.9535209 0.99974308,0.9249875 0.9994313,0.906606 0.99887721,0.8739367 0.99882485,0.873194 0.9971043,0.8735871 c -0.001052,2.4023e-4 -0.00197,0.001759 -0.002282,0.003771 -0.001148,0.007426 -0.0018,-0.091694 -0.002556,-0.38881402 C 0.9918307,0.31731806 0.99145821,0.13734838 0.99143878,0.08861186 L 0.99140155,0 h -0.003009 -0.003009 l -5.761e-5,0.25303235 c -3.181e-5,0.13916778 -3.5408e-4,0.32226345 -7.1625e-4,0.40687925 -6.0327e-4,0.14096348 -7.785e-4,0.15403504 -0.002092,0.15609356 -0.001152,0.001805 -0.001434,0.004965 -0.001434,0.0160883 0,0.0273775 -0.00104,0.0506559 -0.002264,0.0506559 -8.9467e-4,0 -0.001187,-0.005394 -0.001371,-0.0252695 -2.2451e-4,-0.0242488 -3.0344e-4,-0.0252695 -0.001954,-0.0252695 -0.001638,0 -0.00174,0.001123 -0.00215,0.0235849 -4.0602e-4,0.0222753 -5.2322e-4,0.0235849 -0.002111,0.0235849 -9.515e-4,0 -0.001884,0.00117 -0.00215,0.002695 -2.699e-4,0.001552 -0.001198,0.002695 -0.002188,0.002695 -0.001639,0 -0.00174,0.001123 -0.00215,0.0238138 -2.3646e-4,0.0130976 -7.2012e-4,0.0242667 -0.001075,0.0248203 -3.5469e-4,5.5359e-4 -6.4488e-4,-0.007627 -6.4488e-4,-0.0181798 0,-0.019126 -8.6e-6,-0.0191849 -0.001935,-0.0187556 -0.001876,4.1765e-4 -0.001948,9.9693e-4 -0.002365,0.0191755 -5.5323e-4,0.0241219 -0.002078,0.0224773 -0.003009,-0.003246 -3.6225e-4,-0.0100067 -8.975e-4,-0.19012803 -0.00119,-0.40026954 l -5.3095e-4,-0.38207547 -0.001825,-4.0807e-4 -0.001825,-4.0806e-4 -5.9329e-4,0.3784404 c -3.2631e-4,0.20814224 -8.8538e-4,0.38511158 -0.001242,0.39326522 l -6.4901e-4,0.0148248 -1.5752e-4,-0.0117924 c -1.4351e-4,-0.010749 -3.0722e-4,-0.0117925 -0.001851,-0.0117925 -0.001579,0 -0.00171,-0.001113 -0.001935,-0.0165094 -2.3345e-4,-0.015963 -3.055e-4,-0.0165237 -0.002176,-0.0169401 l -0.001935,-4.3066e-4 -1.1272e-4,0.031428 c -2.2915e-4,0.0638729 -0.002603,-0.002948 -0.004197,-0.11816772 -9.7738e-4,-0.0706177 -0.002507,-0.45579144 -0.002543,-0.64049865 L 0.93293207,0 h -0.003747 -0.003747 l -5.8916e-4,0.27863881 c -8.1342e-4,0.38466089 -0.002272,0.58486852 -0.004461,0.61245512 -4.092e-4,0.005156 -8.4523e-4,0.0064 -0.002363,0.006739 -0.001786,3.987e-4 -0.001882,0.001233 -0.002395,0.0206311 -8.2545e-4,0.0312576 -0.001101,0.0307918 -0.001591,-0.002695 -4.3766e-4,-0.0298615 -5.1737e-4,-0.0309973 -0.002174,-0.0309973 -0.001667,0 -0.001733,0.001134 -0.00217,0.037062 -2.4798e-4,0.0203841 -6.2459e-4,0.0367588 -8.3697e-4,0.0363881 C 0.90864556,0.95785121 0.908268,0.93116663 0.9080189,0.89892263 l -4.5279e-4,-0.0586253 -0.001935,-4.3066e-4 c -0.001921,-4.2765e-4 -0.001935,-3.0809e-4 -0.001935,0.0170732 0,0.0185925 -0.001381,0.0735958 -0.002188,0.087131 -4.4557e-4,0.007474 -6.4127e-4,0.008086 -0.002586,0.008086 -0.001728,0 -0.002104,-6.7014e-4 -0.002104,-0.003748 0,-0.003647 -0.002007,-0.006353 -0.003261,-0.004398 -3.343e-4,5.2078e-4 -8.1487e-4,0.005902 -0.001068,0.0119589 l -4.601e-4,0.0110121 -7.3311e-4,-0.01125 -7.331e-4,-0.01125 -0.002336,7.322e-4 -0.002336,7.3221e-4 -5.9674e-4,-0.0123933 C 0.88389106,0.90441888 0.88312806,0.7661953 0.88309506,0.53537802 L 0.88306105,0.2884097 h -0.00215 -0.00215 l -1.1307e-4,0.24764151 c -1.0172e-4,0.22271108 -6.6552e-4,0.3231857 -0.002087,0.37183064 -4.1892e-4,0.0143403 -6.7266e-4,0.0164521 -0.002045,0.0170144 -0.00139,5.6989e-4 -0.001626,-5.8745e-4 -0.002099,-0.0103077 -0.001192,-0.0244989 -0.002159,-0.17776718 -0.002206,-0.34989848 C 0.87018521,0.46425202 0.86990533,0.29610849 0.8695908,0.19103774 L 0.86901892,0 h -0.001869 -0.001869 l -5.8358e-4,0.40936658 c -6.1874e-4,0.43398912 -0.001123,0.50816206 -0.003478,0.51185365 -0.001052,0.00165 -0.001397,0.005202 -0.001475,0.0151968 -1.6251e-4,0.0208366 -0.001178,0.0235088 -0.00192,0.005054 -3.5559e-4,-0.008842 -8.4291e-4,-0.0165746 -0.001083,-0.0171833 -2.4003e-4,-6.0873e-4 -0.001187,-0.001107 -0.002105,-0.001107 -0.001545,0 -0.001669,0.00104 -0.001669,0.0139825 0,0.0149312 -6.0954e-4,0.0224057 -0.001827,0.0224057 -4.138e-4,0 -7.5236e-4,-0.002958 -7.5236e-4,-0.006574 0,-0.007365 -0.00168,-0.0110993 -0.00377,-0.00838 -8.21e-4,0.001068 -0.001298,0.005747 -0.001537,0.0150704 -2.4397e-4,0.00952 -6.9511e-4,0.0138592 -0.001525,0.0146628 -0.001699,0.001645 -0.005206,-0.001257 -0.005206,-0.004308 0,-0.001897 -5.0801e-4,-0.00246 -0.001935,-0.002142 -0.001483,3.3008e-4 -0.001998,0.001454 -0.002204,0.004811 -2.3438e-4,0.00381 -5.8601e-4,0.00438 -0.002702,0.00438 -0.00137,0 -0.002649,-8.8367e-4 -0.002928,-0.002022 -2.7221e-4,-0.001112 -0.001087,-0.002022 -0.001812,-0.002022 -0.00112,0 -0.001319,-0.002866 -0.00133,-0.0192048 -1.332e-5,-0.0194552 -5.2849e-4,-0.0235711 -0.002781,-0.0222164 -0.001599,9.6202e-4 -0.002348,0.0106694 -0.002358,0.0305722 -6.02e-6,0.0123438 -2.2252e-4,0.0150947 -0.001082,0.0137489 -7.9235e-4,-0.00124 -0.001188,-0.0123792 -0.001505,-0.0423854 l -4.2992e-4,-0.0407031 -0.001935,-4.3066e-4 -0.001935,-4.3066e-4 v 0.025556 c 0,0.0201469 -2.4445e-4,0.025703 -0.001155,0.0262507 -7.9294e-4,4.7692e-4 -0.00133,0.004641 -0.001712,0.0132844 -9.2384e-4,0.0208666 -0.001823,0.0210472 -0.002292,4.6034e-4 -4.0433e-4,-0.0177448 -5.3228e-4,-0.0188679 -0.00215,-0.0188679 -0.001612,0 -0.001749,0.001143 -0.002188,0.0181941 -2.5749e-4,0.0100067 -5.4769e-4,0.0146666 -6.4488e-4,0.0103552 -1.7362e-4,-0.0077 -2.185e-4,-0.007831 -0.002541,-0.007412 -0.00231,4.1659e-4 -0.00237,6.5227e-4 -0.002617,0.0101973 -2.2402e-4,0.008665 -4.4308e-4,0.009771 -0.001935,0.009771 -9.2511e-4,0 -0.001682,-6.0647e-4 -0.001682,-0.001348 0,-0.001803 -0.002857,-0.001722 -0.004028,1.1409e-4 -5.1296e-4,8.04e-4 -0.001848,0.001259 -0.002966,0.001011 -0.001638,-3.633e-4 -0.002081,-0.001369 -0.002275,-0.005168 -1.3269e-4,-0.002594 -6.0022e-4,-0.00593 -0.001039,-0.007412 -4.3874e-4,-0.001482 -9.1056e-4,-0.008883 -0.001049,-0.0164448 -2.6643e-4,-0.014605 -0.001192,-0.0184756 -0.003654,-0.0152738 -0.001069,0.001391 -0.001326,0.005086 -0.001326,0.0190804 0,0.0165461 -8.143e-5,0.0173552 -0.001747,0.0173552 -9.6068e-4,0 -0.001956,0.001061 -0.002212,0.002358 -0.001555,0.007889 -0.003579,0.008971 -0.00394,0.002105 -2.154e-4,-0.004098 -6.1802e-4,-0.005137 -0.00199,-0.005137 -0.001312,0 -0.001784,0.001039 -0.001989,0.00438 -4.0172e-4,0.00653 -0.00188,0.005292 -0.00188,-0.001574 0,-0.00769 -6.6103e-4,-0.010218 -0.002672,-0.010218 -0.001199,0 -0.001631,-9.7556e-4 -0.001641,-0.003706 -1.763e-5,-0.004967 -0.001137,-0.007444 -0.003099,-0.006857 -0.001418,4.2446e-4 -0.001669,0.002138 -0.002047,0.0139466 l -4.2992e-4,0.0134627 -0.002282,-6.427e-5 c -0.001255,-3.535e-5 -0.002803,-6.8344e-4 -0.003439,-0.00144 -6.3666e-4,-7.5676e-4 -0.002318,-0.001487 -0.003737,-0.001623 -0.001419,-1.3611e-4 -0.003023,-0.001185 -0.003564,-0.00233 -5.4142e-4,-0.001145 -0.002089,-0.002205 -0.003439,-0.002355 -0.002184,-2.4301e-4 -0.002485,2.0974e-4 -0.002724,0.004105 -2.709e-4,0.004403 -0.0028,0.008011 -0.004478,0.006386 -4.6314e-4,-4.4865e-4 -8.4207e-4,-0.002945 -8.4207e-4,-0.005547 0,-0.004132 -2.4436e-4,-0.004677 -0.001929,-0.004301 -0.001364,3.0454e-4 -0.002076,0.001615 -0.002431,0.004474 -3.966e-4,0.003195 -6.2587e-4,0.002204 -0.001092,-0.004717 -3.2474e-4,-0.004818 -6.8175e-4,-0.0120957 -7.9335e-4,-0.0161725 -1.7541e-4,-0.006408 -4.3595e-4,-0.007412 -0.001923,-0.007412 -0.001605,0 -0.001736,0.001026 -0.001964,0.0154166 -2.2508e-4,0.0141832 -9.3715e-4,0.0189499 -0.002831,0.0189499 -3.9341e-4,0 -8.2969e-4,-0.004094 -9.6953e-4,-0.009097 -2.2613e-4,-0.008091 -4.5581e-4,-0.009142 -0.002077,-0.009505 -0.002005,-4.4838e-4 -0.002874,0.002576 -0.002895,0.0100683 -1.936e-5,0.007042 -7.5273e-4,0.008533 -0.004196,0.008533 -0.004025,0 -0.005359,-0.003192 -0.005921,-0.0141587 -3.8344e-4,-0.007487 -6.4616e-4,-0.008395 -0.002877,-0.009943 -0.00135,-9.3673e-4 -0.002822,-0.001347 -0.003271,-9.1241e-4 -4.4896e-4,4.349e-4 -0.00109,0.00627 -0.001424,0.0129666 -5.0827e-4,0.0101838 -8.3521e-4,0.0121084 -0.001998,0.0117635 -8.9577e-4,-2.656e-4 -0.001489,-0.002087 -0.001667,-0.005118 -1.5195e-4,-0.002588 -6.3561e-4,-0.005282 -0.001075,-0.005986 -4.3919e-4,-7.0417e-4 -7.9854e-4,-0.002904 -7.9854e-4,-0.004889 0,-0.004774 -0.002079,-0.007615 -0.003869,-0.005286 -9.0654e-4,0.001179 -0.001342,0.004732 -0.001467,0.0119575 -1.2301e-4,0.007155 -3.1903e-4,0.004749 -6.4489e-4,-0.007914 -4.3873e-4,-0.017051 -5.7619e-4,-0.0181941 -0.002188,-0.0181941 -0.001561,0 -0.001743,0.001029 -0.001969,0.0111186 -2.8323e-4,0.0126093 -0.0019,0.0153301 -0.0019,0.003197 0,-0.005494 -4.0643e-4,-0.00845 -0.001326,-0.009646 -0.002102,-0.002734 -0.003245,3.1856e-4 -0.00367,0.009798 -2.3341e-4,0.005207 -8.3153e-4,0.008856 -0.001561,0.009521 -6.5013e-4,5.9276e-4 -0.001233,0.002109 -0.001295,0.003369 -6.225e-5,0.00126 -3.5245e-4,1.6888e-4 -6.4488e-4,-0.002425 -3.9911e-4,-0.003541 -9.6054e-4,-0.004717 -0.002251,-0.004717 -0.001487,0 -0.001754,0.001032 -0.001975,0.007619 -2.3324e-4,0.006958 -4.5138e-4,0.007696 -0.002515,0.008508 -0.001596,6.2783e-4 -0.002481,2.7022e-4 -0.003012,-0.001218 -0.001064,-0.002981 -0.003887,-0.002615 -0.004536,5.8898e-4 -4.9702e-4,0.002454 -0.001301,0.002695 -0.008994,0.002695 -0.006717,0 -0.00855,-4.1441e-4 -0.008943,-0.002022 -2.7221e-4,-0.001112 -0.0011,-0.002022 -0.001839,-0.002022 -7.3905e-4,0 -0.001566,9.0971e-4 -0.001839,0.002022 -6.3091e-4,0.002577 -0.00461,0.002689 -0.00461,1.2936e-4 0,-0.001365 -0.001197,-0.001907 -0.004299,-0.001944 -0.00354,-4.298e-5 -0.004299,3.658e-4 -0.004299,0.002315 0,0.002057 -8.1708e-4,0.002344 -0.006234,0.002186 -0.003429,-9.97e-5 -0.006621,-4.1049e-4 -0.007094,-6.9066e-4 -4.7292e-4,-2.8017e-4 -0.002752,-3.589e-5 -0.005065,5.4283e-4 -0.00469,0.001174 -0.005648,1.1921e-4 -0.00567,-0.006245 -1.084e-5,-0.003049 -3.9417e-4,-0.003706 -0.002163,-0.003706 -0.001875,0 -0.00215,5.9047e-4 -0.00215,0.00462 0,0.004581 -3.947e-5,0.004628 -0.004659,0.005532 -0.004804,9.4082e-4 -0.0122134,-8.603e-5 -0.0141489,-0.001961 -6.0438e-4,-5.8546e-4 -0.001318,-0.00363 -0.001587,-0.006766 -2.6834e-4,-0.003136 -0.001013,-0.006017 -0.001654,-0.006403 -8.908e-4,-5.3579e-4 -0.001167,-0.004452 -0.001167,-0.016565 0,-0.0126503 -2.6862e-4,-0.0162127 -0.001326,-0.0175884 -0.002446,-0.003181 -0.003164,7.3615e-4 -0.003759,0.0204908 -8.1935e-4,0.0271996 -0.001413,0.0284536 -0.0136949,0.0289354 -0.004568,1.7917e-4 -0.0102392,6.8584e-4 -0.0126038,0.001126 -0.002365,4.4009e-4 -0.006137,4.1935e-4 -0.008383,-4.61e-5 -0.004083,-8.4606e-4 -0.004084,-8.4759e-4 -0.004084,-0.006111 0,-0.004717 -2.2357e-4,-0.005264 -0.00215,-0.005264 -0.001863,0 -0.00215,5.9919e-4 -0.00215,0.004489 0,0.007123 -0.001958,0.007979 -0.0164142,0.007175 C 0.4952562,0.988373 0.4840231,0.98805344 0.4771084,0.98804183 0.4665327,0.98802408 0.4644547,0.98768767 0.4640228,0.98592383 c -6.5477e-4,-0.002674 -0.003048,-0.002724 -0.003696,-7.581e-5 -8.2955e-4,0.003388 -0.002927,0.002261 -0.003895,-0.002095 -0.001114,-0.00501 -0.004413,-0.005189 -0.004859,-2.6381e-4 -2.3536e-4,0.002598 -7.9016e-4,0.003029 -0.003869,0.003006 -0.006268,-4.588e-5 -0.0214361,-0.003739 -0.0274716,-0.006688 -0.009291,-0.00454 -0.0186262,-0.0185004 -0.0186711,-0.0279225 -7.74e-6,-0.001631 -5.3227e-4,-0.00345 -0.001166,-0.004043 -0.001415,-0.001324 -0.003148,-0.008963 -0.003148,-0.013875 0,-0.001999 -5.483e-4,-0.005396 -0.001218,-0.007548 C 0.3912471,0.91105981 0.3874011,0.81994341 0.3852262,0.67048389 0.3837092,0.56625813 0.3809522,0.14883739 0.3809152,0.01785585 L 0.38091144,0 h -0.005056 -0.005056 l -5.1416e-4,0.08389488 c -2.828e-4,0.04614218 -9.2238e-4,0.16121968 -0.001421,0.25572776 -0.002315,0.43859934 -0.006052,0.56188716 -0.01835,0.60547337 -0.002548,0.009031 -0.0111847,0.0230804 -0.0164186,0.0267093 -0.005269,0.003653 -0.0140796,0.006599 -0.02221,0.007427 -0.0388973,0.00396 -0.0821373,-0.001796 -0.10853215,-0.0144474 -0.0389851,-0.0186857 -0.0562549,-0.0579327 -0.0657492,-0.14942092 -9.6154e-4,-0.009266 -0.001749,-0.0198787 -0.001749,-0.0235849 -4.8e-7,-0.003706 -5.5578e-4,-0.0109838 -0.001234,-0.0161725 -6.7823e-4,-0.005189 -0.001647,-0.0182278 -0.002152,-0.0289757 -5.0527e-4,-0.010748 -0.001296,-0.0265162 -0.001756,-0.0350404 -4.6069e-4,-0.008524 -0.001239,-0.0297507 -0.00173,-0.0471698 -4.9097e-4,-0.0174191 -0.001276,-0.0413747 -0.001744,-0.0532345 -4.6814e-4,-0.0118598 -0.001212,-0.0675957 -0.001652,-0.12385746 -5.8376e-4,-0.0745402 -0.00107,-0.10255445 -0.001792,-0.10325359 -7.2037e-4,-6.9783e-4 -0.001204,-0.0271954 -0.001775,-0.0971668 -4.313e-4,-0.052914 -0.001151,-0.11379493 -0.0016,-0.13529089 C 0.11997139,0.13012129 0.11958294,0.09312668 0.11955691,0.06940701 0.11953086,0.04568733 0.11925977,0.02036725 0.11895443,0.01314016 L 0.11839927,0 H 0.07639654 0.03439381 Z" />
    </g>
    <g id="g674" transform="translate(150.342,428.474)"><circle
       id="path672"
       style="fill:#b3b3b3;fill-opacity:0.7;fill-rule:nonzero"
       cx="267.1737" cy="229.8169" r="4.2" />
     </g>
     <g id="g680" transform="translate(150.342,428.474)"><text
       id="text678"
       style="font-variant:normal;font-weight:normal;font-size:8px;font-family:'Source Sans Pro',Helvetica,sans-serif;writing-mode:lr-tb;fill:#acacac;fill-opacity:1;fill-rule:nonzero;stroke:none"
       transform="matrix(1,0,0,-1,277.969,226.114)"><tspan
         id="tspan676"
         y="0"
         x="0 6.2729988">1 km atm</tspan></text>
    </g>
  </g>
</svg>