<?xml version="1.0" encoding="UTF-8" standalone="no"?>
<svg
   xmlns:dc="http://purl.org/dc/elements/1.1/"
   xmlns:cc="http://creativecommons.org/ns#"
   xmlns:rdf="http://www.w3.org/1999/02/22-rdf-syntax-ns#"
   xmlns:svg="http://www.w3.org/2000/svg"
   xmlns="http://www.w3.org/2000/svg"
   viewBox="0 0 567.72107 342.03174"
   height="100%"
   width="100%"
   xml:space="preserve"
   id="svg2"
   version="1.1">
  <metadata id="metadata8">
    <rdf:RDF>
      <cc:Work rdf:about="">
        <dc:format>image/svg+xml</dc:format>
        <dc:type rdf:resource="http://purl.org/dc/dcmitype/StillImage" />
      </cc:Work>
    </rdf:RDF>
  </metadata>
  <defs id="defs6">
    <clipPath id="clipPath14" clipPathUnits="userSpaceOnUse"><path
       id="path12"
       d="M 0,0 H 612 V 792 H 0 Z" />
    </clipPath>
    <clipPath id="clipPath1000" clipPathUnits="userSpaceOnUse"><path
       id="path98"
       d="M 123.6904,353.1703 H 497.1442 V 573.4561 H 123.6904 Z" />
    </clipPath>
  </defs>

  <g clip-path="url(#clipPath14)" transform="matrix(1.3333333,0,0,-1.3333333,-101.34387,771.112)" id="g23">
    <g id="g94">
      <g clip-path="url(#clipPath1000)" id="g96">
        <g transform="matrix(0.95609,0,0,0.95609,72,316.341)" id="g102"><path
           id="path104"
           style="fill:none;stroke:#ffd700;stroke-width:1;stroke-linecap:square;stroke-linejoin:round;stroke-miterlimit:10;stroke-dasharray:none;stroke-opacity:1"
           d="m 54.06439,119.2109 c 19.534335,0.6129 39.40096,1.72707 58.51499,-3.17467 17.45625,-3.1431 32.23568,-13.6544 48.68454,-19.522721 15.63369,-4.276966 29.82285,6.120251 43.7318,11.607671 43.33865,19.08542 87.30184,37.72679 133.83569,47.50668 19.39051,3.71783 37.08407,12.62407 54.50179,21.53774 16.33297,8.43169 34.89858,10.08046 51.576,17.5597" />
        </g>
        <g transform="matrix(0.95609,0,0,0.95609,72,316.341)" id="g1056"><text
           id="text1060"
           style="font-variant:normal;font-weight:normal;font-style:italic;font-size:10px;font-family:'Source Sans Pro',Helvetica,sans-serif;fill:#ffd700;fill-opacity:1;fill-rule:nonzero;stroke:none"
           transform="matrix(1,0,0,-1,69.85,125.122)"><tspan
             id="tspan1058"
             y="0"
             x="0">BB</tspan></text><text
           id="text1061"
           style="font-variant:normal;font-weight:normal;font-size:10px;font-family:'Source Sans Pro',Helvetica,sans-serif;fill:#ffd700;fill-opacity:1;fill-rule:nonzero;stroke:none"
           transform="matrix(1,0,0,-1,84.85,125.122)"><tspan
             id="tspan1059"
             y="0"
             x="0">total</tspan></text>
        </g>
      </g>
    </g>
  </g>
</svg>
