<?xml version="1.0" encoding="UTF-8" standalone="no"?>
<svg
   xmlns:dc="http://purl.org/dc/elements/1.1/"
   xmlns:cc="http://creativecommons.org/ns#"
   xmlns:rdf="http://www.w3.org/1999/02/22-rdf-syntax-ns#"
   xmlns:svg="http://www.w3.org/2000/svg"
   xmlns="http://www.w3.org/2000/svg"
   viewBox="0 0 567.72107 342.03174"
   height="100%"
   width="100%"
   xml:space="preserve"
   id="svg2"
   version="1.1">
  <metadata id="metadata8">
    <rdf:RDF>
      <cc:Work rdf:about="">
        <dc:format>image/svg+xml</dc:format>
        <dc:type rdf:resource="http://purl.org/dc/dcmitype/StillImage" />
      </cc:Work>
    </rdf:RDF>
  </metadata>
  <defs id="defs6">
    <clipPath id="clipPath14" clipPathUnits="userSpaceOnUse"><path
       id="path12"
       d="M 0,0 H 612 V 792 H 0 Z" />
    </clipPath>
    <clipPath id="clipPath52" clipPathUnits="userSpaceOnUse"><path
       id="path50"
       d="M 123.6904,353.1703 H 497.1442 V 573.4561 H 123.6904 Z" />
    </clipPath>
  </defs>

  <g clip-path="url(#clipPath14)" transform="matrix(1.3333333,0,0,-1.3333333,-101.34387,771.112)" id="g21">
    <g id="g82">
      <g clip-path="url(#clipPath52)" id="g84">
        <g transform="matrix(0.95609,0,0,0.95609,72,329.341)" id="g90"><path
           id="path92"
           style="fill:none;stroke:#acacac;stroke-width:1;stroke-linecap:square;stroke-linejoin:round;stroke-miterlimit:10;stroke-dasharray:none;stroke-opacity:1"
           d="m 54.06439,119.1658 28.68459,0.7076 20.35132,-1.8787 15.7854,-3.6651 12.8981,-4.9176 10.9052,-5.6118 9.4461,-5.54382 8.3322,-4.43634 7.4543,-2.37747 6.7424,-0.167 6.1557,1.36342 5.6624,2.10171 5.2417,2.26212 13.7353,6.18648 7.8685,3.4322 7.0807,3.007 6.4359,2.6708 5.8987,2.3939 5.4438,2.16 7.4532,2.8927 6.7435,2.5522 4.1616,1.5359 5.8185,2.0819 5.3756,1.8589 4.9956,1.6502 4.666,1.4678 4.377,1.3063 4.1221,1.1569 3.8947,1.0239 3.6926,0.8998 3.5079,0.7855 3.3432,0.679 3.1916,0.5779 3.0542,0.4834 2.9279,0.3944 2.8115,0.3098 2.7037,0.2307 2.6049,0.1549 2.5115,0.0791 2.4258,0.007 2.3457,-0.0637 2.2697,-0.1318 2.1995,-0.1978 2.1325,-0.2615 2.071,-0.3219 2.0116,-0.3834 1.9567,-0.4417 1.9028,-0.5009 1.8546,-0.5592 1.8061,-0.6142 1.7612,-0.6702 1.7182,-0.7229 1.6777,-0.7745 1.6392,-0.824 1.6018,-0.8701 1.5666,-0.9185 1.5316,-0.9591 1.5007,-1.0031 1.4689,-1.0404 1.9116,-1.4381 1.8623,-1.4832 1.8138,-1.5183 2.2039,-1.926 5.8294,-5.19 0.3977,-0.3197 0.3967,-0.3592 2.7136,-2.0347 0.379,-0.2637 1.4975,-0.8954 1.103,-0.6109 0.3637,-0.1241 0.7218,-0.3384 1.069,-0.3878 1.4008,-0.3538 0.6899,-0.0889 0.3428,-0.0902 h 0.3417 l 0.3384,-0.045 h 0.3383 l 0.3362,-0.045 h 0.334 l 0.3329,0.045 h 0.6614 l 0.98,0.1352 h 0.3241 l 0.3219,0.0889 0.958,0.134 0.3164,0.088 0.3153,0.0439 0.6263,0.1747 0.3109,0.0428 0.6185,0.1725 0.3065,0.0429 0.913,0.2549 0.301,0.0417 0.8976,0.2505 0.2967,0.0418 0.2955,0.0823 0.5867,0.0813 0.5823,0.1626 0.8646,0.1209 h 0.2857 l 0.2845,0.0802 h 0.5669 l 0.2813,0.0406 h 0.8371 l 0.2769,-0.0406 0.2757,0.0406 0.2747,-0.0406 h 0.2736 l 0.5438,-0.0802 h 0.2703 l 0.5383,-0.0802 0.267,-0.0813 0.5328,-0.0813 0.5274,-0.1637 0.524,-0.0824 0.5208,-0.1659 0.2582,-0.1263 0.2581,-0.0418 0.512,-0.1703 0.2549,-0.1285 0.2538,-0.0857 0.2538,-0.1308 0.2516,-0.0428 0.7514,-0.3977 0.4966,-0.1802 0.7383,-0.412 0.2439,-0.0923 0.2439,-0.1878 0.2428,-0.0945 1.4393,-0.8756 0.2362,-0.1506 0.2362,-0.2021 0.2362,-0.1022 0.7009,-0.4691 0.2329,-0.212 0.2307,-0.1077 0.2318,-0.2164 0.2297,-0.1088 0.2296,-0.2208 0.2285,-0.1681 0.2274,-0.1132 1.1283,-0.8701 0.4461,-0.3604 0.223,-0.123 0.6614,-0.5603 0.2197,-0.1275 0.4362,-0.3878 0.2175,-0.1318 0.4329,-0.4 0.4307,-0.2724 0.2131,-0.2077 0.6383,-0.4218 0.2121,-0.2154 0.8393,-0.5877 0.2088,-0.0748 0.8273,-0.6119 0.2054,-0.078 0.2043,-0.1571 0.4076,-0.1593 0.2033,-0.1604 1.2063,-0.49 h 0.1989 l 0.3966,-0.16701 h 0.1966 L 421.43,99.8729 h 0.3922 l 0.1956,-0.08461 H 422.6 l 0.1923,-0.08459 0.1934,0.08459 0.1911,-0.08459 h 0.5735 l 0.1901,0.08459 0.189,-0.08459 0.1889,0.08459 h 0.5636 l 0.1868,0.08461 h 0.7427 l 0.1846,0.08459 h 0.1834 l 0.1835,0.08351 h 0.3659 l 0.1823,0.0835 0.1813,-0.0835 h 0.1813 l 0.3615,0.1659 h 0.7163 l 0.178,0.0824 h 0.3548 l 0.1758,-0.0824 h 0.8767 l 0.1747,-0.0824 0.1736,0.0824 h 0.1725 l 0.1736,-0.0824 h 0.5152 l 0.1714,-0.0835 h 0.3406 l 0.1703,-0.08351 h 0.1692 l 0.3372,-0.1692 h 0.1681 l 0.1681,-0.08459 h 0.1681 l 0.167,-0.0846 h 0.1659 l 0.167,-0.0868 h 0.1659 l 0.6592,-0.34716 h 0.1637 l 0.9756,-0.53505 h 0.1615 l 0.9602,-0.55261 h 0.1593 l 0.1582,-0.09448 0.1582,-0.18897 1.2525,-0.78005 0.1549,-0.20105 0.6163,-0.4098 0.1528,-0.20873 0.1538,-0.10438 h 0.1516 l 0.1527,-0.21314 0.9075,-0.6537 0.1494,-0.22412 0.5977,-0.45703 0.1483,-0.23293 0.1483,-0.11753 h 0.1472 l 0.1472,-0.23842 0.2945,-0.24169 h 0.1472 l 0.1461,-0.12194 0.1461,-0.24721 0.2912,-0.25159 h 0.145 l 0.4328,-0.38342 0.144,-0.2604 h 0.1439 l 0.2867,-0.26476 h 0.1429 l 0.2845,-0.26917 h 0.1417 l 0.3813,-0.37024 v 0" />
        </g>
      </g>
    </g>
  </g>
</svg>
