<?xml version="1.0" encoding="UTF-8" standalone="no"?>
<svg
   xmlns:dc="http://purl.org/dc/elements/1.1/"
   xmlns:cc="http://creativecommons.org/ns#"
   xmlns:rdf="http://www.w3.org/1999/02/22-rdf-syntax-ns#"
   xmlns:svg="http://www.w3.org/2000/svg"
   xmlns="http://www.w3.org/2000/svg"
   xmlns:xlink="http://www.w3.org/1999/xlink"
   viewBox="0 0 459.20239 316.88052"
   height="100%"
   width="100%"
   xml:space="preserve"
   id="svg2"
   version="1.1">
  <metadata id="metadata8">
    <rdf:RDF>
      <cc:Work rdf:about="">
        <dc:format>image/svg+xml</dc:format>
        <dc:type rdf:resource="http://purl.org/dc/dcmitype/StillImage" />
      </cc:Work>
    </rdf:RDF>
  </metadata>
  <defs>
    <clipPath id="clipPath15" clipPathUnits="userSpaceOnUse"><path
         id="path12"
         d="M 0,0 H 612 V 645.3 H 0 Z" />
    </clipPath>
  </defs>
  <g transform="matrix(1.3333333,0,0,-1.3333333,-204.12547,891.96867)" id="g3">
    <g clip-path="url(#clipPath15)" id="g30">
      <g id="g132" transform="matrix(279.1197,0,0,178.0796,201.941,467.868)"><path
        id="path7512"
        style="fill:#d2d2d2;stroke-width:0.00107649"
        d="m 0.07394669,0.41360244 c 0,0.36640337 -1.4719e-4,0.41369097 -0.0012898,0.41437819 -0.0010894,6.5526e-4 -0.001303,0.00544 -0.0013748,0.0308046 -4.677e-5,0.0165159 -3.7922e-4,0.0333644 -7.3878e-4,0.0374412 -3.5956e-4,0.004077 -7.5745e-4,-0.0356469 -8.842e-4,-0.0882749 C 0.06953239,0.75532345 0.06918771,0.70559299 0.06889319,0.69743935 0.06838985,0.68350462 0.06824923,0.68261969 0.06655112,0.6827 L 0.06474452,0.68278544 0.0641234,0.52097495 C 0.06378182,0.43197915 0.06316979,0.35862906 0.0627634,0.3579747 0.06235699,0.35732035 0.0614181,0.35714969 0.0606769,0.35759547 c -0.0012156,7.3113e-4 -0.0013476,0.021514 -0.0013476,0.2122227 0,0.11627671 -2.562e-4,0.23334427 -5.6933e-4,0.26015012 -5.3832e-4,0.0460825 -6.5544e-4,0.0487379 -0.0021496,0.0487379 -0.0014438,0 -0.0015808,0.001368 -0.0015864,0.0158356 -3.36e-6,0.00871 -2.4814e-4,0.0198514 -5.4396e-4,0.0247597 -4.7301e-4,0.007848 -7.3138e-4,0.008845 -0.0021435,0.008266 -0.0014273,-5.8502e-4 -0.0016059,-0.0021 -0.0016078,-0.0136411 -1.12e-6,-0.007141 -2.5681e-4,-0.0262031 -5.6811e-4,-0.042361 -5.5463e-4,-0.0287881 -6.0207e-4,-0.0293699 -0.0023625,-0.0289757 -0.0017793,3.9845e-4 -0.0017986,8.6598e-4 -0.002022,0.0490667 l -2.2556e-4,0.0486644 -0.0020086,-6.0184e-4 c -0.0018871,-5.6543e-4 -0.0020426,-9.352e-5 -0.0025689,0.0078 -3.0816e-4,0.004621 -5.6028e-4,0.0130941 -5.6028e-4,0.0188288 0,0.009293 -1.8694e-4,0.0105034 -0.0017197,0.0111317 -0.0013719,5.6232e-4 -0.0017334,0.001889 -0.0017876,0.006559 -3.733e-5,0.00322 -2.6304e-4,0.005096 -5.0157e-4,0.004169 -2.3854e-4,-9.2655e-4 -9.245e-4,-0.001685 -0.0015244,-0.001685 -0.0012833,0 -0.0021924,-0.0149128 -0.0022002,-0.0360935 -4.21e-6,-0.0113326 -2.5059e-4,-0.0140039 -0.0013527,-0.0146668 -7.4116e-4,-4.4578e-4 -0.001708,-2.4556e-4 -0.0021485,4.4493e-4 -4.4054e-4,6.9049e-4 -0.0010555,0.0140674 -0.0013667,0.0297266 -5.441e-4,0.0273838 -6.3445e-4,0.0285001 -0.0023656,0.0292286 -0.0030012,0.001263 -0.0091132,8.852e-4 -0.01097716,-6.7834e-4 -0.0012695,-0.001065 -0.0020155,-0.001065 -0.002695,0 -5.1672e-4,8.0991e-4 -0.00337716,0.001473 -0.00635653,0.001473 C 0.00117512,0.99595687 0,0.99639541 0,0.99797844 0,0.99977306 0.0561428,1 0.50012617,1 H 1.0002524 L 0.99969622,0.9896888 c -3.0585e-4,-0.005671 -5.5607e-4,-0.0163265 -5.5607e-4,-0.0236786 0,-0.0130917 -3.955e-5,-0.0133586 -0.001935,-0.0129368 -0.00188,4.1858e-4 -0.001941,9.2226e-4 -0.002145,0.0179509 -2.3629e-4,0.0197155 -6.086e-4,0.0235849 -0.002269,0.0235849 -0.001789,0 -0.00225,-0.00931 -0.00225,-0.0454301 V 0.9162546 l -0.001935,4.3066e-4 -0.001935,4.3066e-4 -4.4007e-4,0.0343666 c -4.1917e-4,0.0327306 -4.601e-4,0.0334042 -8.5985e-4,0.0141509 -3.9656e-4,-0.0190979 -5.1487e-4,-0.0202156 -0.002139,-0.0202156 -0.001584,0 -0.001737,0.00101 -0.001934,0.0128032 -2.5666e-4,0.0153549 -7.0017e-4,0.0188679 -0.002382,0.0188679 -0.001083,0 -0.001273,-0.004126 -0.001273,-0.027628 v -0.027628 h -0.00215 -0.00215 v 0.0147311 c 0,0.0142506 -6.277e-5,0.0147451 -0.001935,0.0151617 -0.001677,3.7326e-4 -0.001969,0.001347 -0.00219,0.007307 -2.4127e-4,0.006494 -3.7282e-4,0.006841 -0.002365,0.006245 l -0.002109,-6.3193e-4 v 0.0135547 c 0,0.007583 -3.7885e-4,0.0139216 -8.5985e-4,0.0143876 -5.4402e-4,5.2701e-4 -8.5984e-4,-0.00288 -8.5984e-4,-0.009275 0,-0.010333 -8.2692e-4,-0.013106 -0.003047,-0.0102179 -8.8332e-4,0.001149 -0.001272,0.004657 -0.00132,0.0119085 -3.698e-5,0.005654 -2.6312e-4,0.009522 -5.0164e-4,0.008595 -2.3852e-4,-9.2655e-4 -9.2794e-4,-0.001685 -0.001532,-0.001685 -6.8298e-4,0 -0.001303,-0.002676 -0.001641,-0.007075 C 0.95468471,0.98094669 0.95443733,0.872086 0.9544332,0.74292495 l -7.48e-6,-0.23483828 h -0.00215 -0.00215 v 0.2425876 c 0,0.1608266 -2.8977e-4,0.24258761 -8.5985e-4,0.24258761 -4.7291e-4,0 -8.5984e-4,-0.00189 -8.5984e-4,-0.0042 0,-0.003741 -2.3251e-4,-0.004131 -0.002126,-0.003563 l -0.002126,6.3685e-4 -2.3904e-4,-0.017663 c -2.2519e-4,-0.0166397 -3.3869e-4,-0.017663 -0.001959,-0.017663 -0.001642,0 -0.00173,0.001022 -0.001955,0.0225741 -1.8822e-4,0.0180261 -4.7283e-4,0.0225741 -0.001413,0.0225741 -0.00172,0 -0.002478,-0.003545 -0.003024,-0.0141509 -4.3698e-4,-0.008478 -6.8186e-4,-0.009478 -0.002417,-0.009864 l -0.001927,-4.308e-4 -2.1883e-4,-0.14444883 c -2.1728e-4,-0.14343604 -2.3087e-4,-0.14444884 -0.001939,-0.14444884 -0.001707,0 -0.001723,0.00113 -0.002162,0.15363881 -2.4342e-4,0.0845014 -5.3362e-4,0.1537197 -6.4488e-4,0.15381856 -1.1118e-4,9.885e-5 -9.7601e-4,4.9693e-4 -0.001922,8.8461e-4 -9.4583e-4,3.8767e-4 -0.00172,0.001722 -0.00172,0.002965 0,0.003291 -0.002099,0.001688 -0.002431,-0.001856 -3.8194e-4,-0.00408 -0.003612,-0.003314 -0.005045,0.001196 -9.0912e-4,0.002861 -0.001107,2.1771e-4 -0.001311,-0.0175202 -2.2898e-4,-0.0198652 -3.2511e-4,-0.0208895 -0.00196,-0.0208895 -0.001634,0 -0.001731,0.001022 -0.001957,0.0205526 -3.7911e-4,0.0328212 -0.00185,0.0248401 -0.002112,-0.0114555 l -2.3052e-4,-0.0320081 -0.001935,-4.3066e-4 c -0.001898,-4.2258e-4 -0.001935,-1.6949e-4 -0.001949,0.0134771 -1.548e-5,0.0150962 -0.001269,0.0422712 -0.002108,0.0456692 -3.8641e-4,0.001566 -0.001524,0.002019 -0.004403,0.001753 -0.002756,-2.5448e-4 -0.00402,2.0778e-4 -0.00436,0.001594 -8.6371e-4,0.003528 -0.001905,0.002044 -0.002177,-0.003101 -2.1212e-4,-0.004016 -6.2003e-4,-0.005054 -0.001987,-0.005054 -0.001367,0 -0.001774,0.001038 -0.001987,0.005054 -2.0886e-4,0.003956 -6.2855e-4,0.005054 -0.001931,0.005054 -0.001636,0 -0.001668,-0.002926 -0.001883,-0.17284366 -2.1694e-4,-0.17183119 -2.2829e-4,-0.17284367 -0.001938,-0.17284367 -0.001709,0 -0.001721,0.001013 -0.001938,0.1662067 -2.3216e-4,0.1766627 -7.463e-5,0.17004667 -0.004047,0.17004667 -7.5839e-4,0 -0.001657,0.001166 -0.001996,0.002591 -5.2425e-4,0.002201 -8.4351e-4,0.002331 -0.00212,8.6426e-4 -0.001422,-0.001634 -0.001515,-0.0188257 -0.00172,-0.32031355 -2.1608e-4,-0.31757491 -2.2227e-4,-0.31858663 -0.001936,-0.31858663 -0.001714,0 -0.00172,0.001012 -0.001936,0.31839622 L 0.864999,0.98787005 H 0.862868 c -0.001556,0 -0.002277,9.0894e-4 -0.002671,0.003369 -2.9673e-4,0.001853 -8.7709e-4,0.003369 -0.00129,0.003369 -0.001131,0 -0.001621,-0.004796 -0.001858,-0.0181941 -1.969e-4,-0.0111187 -3.5808e-4,-0.0121294 -0.001934,-0.0121294 -0.001592,0 -0.001738,0.001027 -0.001965,0.013814 -1.8627e-4,0.0105004 -5.2316e-4,0.013814 -0.001404,0.013814 -6.3767e-4,0 -0.001371,-0.001266 -0.001629,-0.002813 -7.0789e-4,-0.004243 -0.003449,-0.002707 -0.004423,0.002479 -7.3046e-4,0.003886 -0.001169,0.004377 -0.003912,0.004377 -0.001699,0 -0.003554,-7.2776e-4 -0.004121,-0.001617 -8.0252e-4,-0.001258 -0.001261,-0.001258 -0.002064,0 -0.001103,0.001729 -0.005045,0.002098 -0.008212,7.6781e-4 -0.001796,-7.5422e-4 -0.001935,-0.001564 -0.001935,-0.0112721 0,-0.007781 -3.3963e-4,-0.0109013 -0.001326,-0.0121846 -0.002173,-0.002826 -0.002998,1.0179e-4 -0.003563,0.0126312 -3.7822e-4,0.0084 -8.4629e-4,0.0116749 -0.001669,0.0116749 -9.0191e-4,0 -0.001192,-0.005331 -0.001377,-0.0252695 -2.3194e-4,-0.0250529 -2.5053e-4,-0.0252732 -0.002169,-0.0257002 L 0.813411,0.9445554 v 0.0241362 0.0241362 l -0.00219,0.001564 c -0.001205,8.6022e-4 -0.00235,0.001564 -0.002546,0.001564 -1.9579e-4,0 -4.6778e-4,-0.005307 -6.0442e-4,-0.0117924 -2.2678e-4,-0.0107642 -3.9839e-4,-0.0117925 -0.001968,-0.0117925 -0.001551,0 -0.001762,0.001123 -0.00215,0.0114555 -2.4618e-4,0.006559 -6.9402e-4,0.0104475 -0.001048,0.009097 -8.4157e-4,-0.003212 -0.003868,-0.002988 -0.004541,3.3693e-4 -4.7952e-4,0.002368 -0.001301,0.002695 -0.006765,0.002695 -0.006941,0 -0.008277,-0.001183 -0.008294,-0.007345 -2.098e-5,-0.007336 -9.0292e-4,-0.0103545 -0.002895,-0.009909 -0.001462,3.2708e-4 -0.001868,0.001473 -0.002052,0.005798 -4.4987e-4,0.0105818 -7.8124e-4,0.0114555 -0.004344,0.0114555 -0.001788,0 -0.003725,-7.429e-4 -0.004304,-0.001651 -8.3114e-4,-0.001303 -0.001443,-0.001269 -0.002903,1.6005e-4 -0.001589,0.001555 -0.001994,0.001503 -0.002868,-3.7068e-4 -5.5977e-4,-0.0012 -0.001493,-0.002182 -0.002075,-0.002182 -5.8144e-4,0 -0.001752,-0.001345 -0.002601,-0.002989 -0.001321,-0.002558 -0.001744,-0.002728 -0.002932,-0.001183 -7.6357e-4,9.9327e-4 -0.001388,0.003259 -0.001388,0.005035 0,0.003191 -7.936e-5,0.003221 -0.006574,0.002489 -0.003616,-4.0743e-4 -0.006919,-0.001075 -0.007342,-0.001484 -4.2216e-4,-4.0894e-4 -0.002678,2.376e-5 -0.005012,9.6156e-4 -0.00348,0.001398 -0.00463,0.001382 -0.006387,-9.18e-5 -0.001618,-0.001357 -0.002432,-0.00142 -0.003325,-2.5772e-4 -0.0018,0.002341 -0.002315,5.1942e-4 -0.002315,-0.00819 0,-0.007479 -1.1581e-4,-0.00793 -0.001935,-0.007525 -0.001738,3.868e-4 -0.001961,0.001288 -0.002191,0.008854 -2.1906e-4,0.007208 -4.8959e-4,0.008423 -0.001875,0.008423 -0.001024,0 -0.00172,-0.001114 -0.001894,-0.003032 -4.1906e-4,-0.004625 -0.003921,-0.004898 -0.004647,-3.6199e-4 -5.3446e-4,0.003338 -8.1325e-4,0.003499 -0.005404,0.00312 -0.004514,-3.7242e-4 -0.004859,-6.3901e-4 -0.005104,-0.003952 -2.0341e-4,-0.002752 -8.5765e-4,-0.003739 -0.002902,-0.00438 -0.003908,-0.001225 -0.004143,-0.0011 -0.004157,0.002205 -2.106e-5,0.004861 -0.001265,0.006868 -0.003669,0.005922 -0.001335,-5.2535e-4 -0.002351,-0.002122 -0.002688,-0.004226 -8.1435e-4,-0.005086 -0.003698,-0.004473 -0.004706,9.9905e-4 -6.9467e-4,0.003771 -8.1767e-4,0.003021 -8.8442e-4,-0.005391 -7.533e-5,-0.009491 -1.3904e-4,-0.009771 -0.002227,-0.009771 -0.002054,0 -0.00215,3.5939e-4 -0.00215,0.008086 0,0.009194 -0.001483,0.011059 -0.001885,0.00237 -2.0045e-4,-0.004333 -6.5547e-4,-0.005833 -0.001881,-0.006197 -0.002166,-6.4469e-4 -0.003083,0.001984 -0.003099,0.008881 -1.108e-5,0.004822 -2.8499e-4,0.005728 -0.001733,0.005728 -0.001146,0 -0.00172,-8.9847e-4 -0.00172,-0.002695 0,-0.001977 -5.7324e-4,-0.002695 -0.00215,-0.002695 -0.00154,0 -0.00215,7.2752e-4 -0.00215,0.002564 0,0.002436 -9.0136e-4,0.002569 -0.0180567,0.002654 -0.0111262,5.557e-5 -0.0180568,-4.1135e-4 -0.0180568,-0.001216 0,-0.00159 -0.003162,-0.001752 -0.003777,-1.9354e-4 -7.7856e-4,0.001974 -0.0276372,0.001997 -0.0296519,2.478e-5 -0.001406,-0.001376 -0.002004,-0.001396 -0.002835,-9.34e-5 -0.001516,0.002377 -0.0203928,0.002187 -0.0224204,-2.2518e-4 -9.0613e-4,-0.001078 -0.00151,-0.003608 -0.001518,-0.006359 -1.608e-5,-0.005593 -0.001116,-0.008582 -0.002787,-0.007576 -0.001259,7.5727e-4 -0.002359,0.006636 -0.002359,0.0126101 v 0.003201 h -0.0193465 c -0.0166237,0 -0.0193465,-2.8451e-4 -0.0193465,-0.002022 0,-0.001258 -8.1207e-4,-0.002022 -0.00215,-0.002022 -0.001359,0 -0.00215,7.6053e-4 -0.00215,0.002069 0,0.001825 -0.003673,0.00205 -0.0311694,0.001905 -0.0207521,-1.0894e-4 -0.0315408,-6.4625e-4 -0.0322806,-0.001608 -7.9507e-4,-0.001033 -0.001394,-0.001 -0.002107,1.1609e-4 -0.001182,0.001852 -0.0510036,0.002263 -0.0517277,4.2668e-4 -6.0845e-4,-0.001543 -0.008253,-0.001629 -0.008253,-9.248e-5 0,6.7426e-4 -0.00305,0.001226 -0.006778,0.001226 -0.006303,0 -0.006815,-2.1284e-4 -0.007297,-0.003032 -2.8516e-4,-0.001668 -5.2376e-4,-0.0223068 -5.3021e-4,-0.0458644 -1.058e-5,-0.038493 -1.55e-4,-0.0429182 -0.001426,-0.0436826 -0.003398,-0.002044 -0.003744,0.002131 -0.003757,0.0453302 -6.46e-6,0.0226515 -2.4505e-4,0.042549 -5.3021e-4,0.0442168 l -5.1846e-4,0.003032 H 0.25407967 0.13604693 l -5.7459e-4,-0.004801 c -4.7424e-4,-0.003962 -9.0392e-4,-0.004727 -0.00246,-0.00438 -0.001437,3.2061e-4 -0.001951,0.001481 -0.002159,0.004881 -2.426e-4,0.00396 -5.3225e-4,0.004414 -0.00258,0.004043 l -0.002306,-4.1762e-4 -5.3393e-4,-0.0303235 c -2.9367e-4,-0.0166779 -5.8386e-4,-0.0332464 -6.4489e-4,-0.0368188 -1.0119e-4,-0.005924 -2.8115e-4,-0.006457 -0.002046,-0.006065 -0.001934,4.305e-4 -0.001935,4.434e-4 -0.002416,0.0347972 -2.6494e-4,0.0189016 -5.5514e-4,0.0345182 -6.4488e-4,0.0347035 -8.974e-5,1.8531e-4 -5.5009e-4,3.3693e-4 -0.001023,3.3693e-4 -4.7291e-4,0 -8.5984e-4,-0.003089 -8.5984e-4,-0.006865 0,-0.005689 -2.8916e-4,-0.006983 -0.001689,-0.007557 -0.001499,-6.1435e-4 -0.001716,-0.002077 -0.001935,-0.013014 -2.3564e-4,-0.0118023 -3.2758e-4,-0.0123173 -0.002181,-0.0122148 -0.001472,8.143e-5 -0.001935,-6.4348e-4 -0.001935,-0.003032 0,-0.002241 -4.9217e-4,-0.003139 -0.00172,-0.003139 -0.001511,0 -0.00172,-8.9847e-4 -0.00172,-0.007412 0,-0.006514 -2.0845e-4,-0.007412 -0.00172,-0.007412 -0.001716,0 -0.00172,-8.9848e-4 -0.00172,-0.46563343 V 0 h -0.00258 -0.0025795 v 0.15022725 c 0,0.13298163 -1.4807e-4,0.15013818 -0.0012898,0.1494515 C 0.0955938,0.29899565 0.0954397,0.28105405 0.0954397,0.1494515 V 0 H 0.09243336 0.0894239 v 0.45148248 c 0,0.44404078 -2.716e-5,0.45148248 -0.001648,0.45148248 -9.0641e-4,0 -0.0018092,7.5804e-4 -0.0020063,0.001685 C 0.0847275,0.90954996 0.084267,0.75416373 0.084266,0.39723767 L 0.08426483,0 h -0.0051591 -0.0051591 z" />
      </g>
    </g>
    <g id="g690" transform="translate(150.342,428.474)"><circle
       id="path688"
       style="fill:#d2d2d2;fill-opacity:1;fill-rule:nonzero;stroke:#d2d2d2;"
       cx="193.7204" cy="229.8169" r="4.2" />
    </g>
    <g id="g696" transform="translate(150.342,428.474)"><text
       id="text694"
       style="font-variant:normal;font-weight:normal;font-size:8px;font-family:'Source Sans Pro',Helvetica,sans-serif;writing-mode:lr-tb;fill:#d2d2d2;fill-opacity:1;fill-rule:nonzero;stroke:none"
       transform="matrix(1,0,0,-1,204.317,226.114)"><tspan
         id="tspan692"
         y="0"
         x="0">35 km atm</tspan></text>
    </g>
  </g>
</svg>