<?xml version="1.0" encoding="UTF-8" standalone="no"?>
<svg
   xmlns:dc="http://purl.org/dc/elements/1.1/"
   xmlns:cc="http://creativecommons.org/ns#"
   xmlns:rdf="http://www.w3.org/1999/02/22-rdf-syntax-ns#"
   xmlns:svg="http://www.w3.org/2000/svg"
   xmlns="http://www.w3.org/2000/svg"
   viewBox="0 0 567.72107 342.03174"
   height="100%"
   width="100%"
   xml:space="preserve"
   id="svg2"
   version="1.1">
  <metadata id="metadata8">
    <rdf:RDF>
      <cc:Work rdf:about="">
        <dc:format>image/svg+xml</dc:format>
        <dc:type rdf:resource="http://purl.org/dc/dcmitype/StillImage" />
      </cc:Work>
    </rdf:RDF>
  </metadata>
  <defs id="defs6">
    <clipPath id="clipPath14" clipPathUnits="userSpaceOnUse"><path
       id="path12"
       d="M 0,0 H 612 V 792 H 0 Z" />
    </clipPath>
    <clipPath id="clipPath160" clipPathUnits="userSpaceOnUse"><path
       id="path158"
       d="M 72,316.341 H 504.0227 V 580.3366 H 72 Z" />
    </clipPath>
    <clipPath id="clipPath3278" clipPathUnits="userSpaceOnUse"><path
       id="path3276"
       d="M 123.6904,353.1703 H 497.1442 V 573.4561 H 123.6904 Z" />
    </clipPath>
  </defs>

  <g clip-path="url(#clipPath14)" transform="matrix(1.3333333,0,0,-1.3333333,-101.34387,771.112)" id="g24">
    <!-- BICEP2/Keck BB errorbars -->
    <g
     id="g2992"><g
       clip-path="url(#clipPath2998)"
       id="g2994"><g
         transform="matrix(0.95609,0,0,0.95609,72,316.341)"
         id="g3000"><path
           id="path3002"
           style="fill:none;stroke:#87ceeb;stroke-width:1.5;stroke-linecap:butt;stroke-linejoin:round;stroke-miterlimit:10;stroke-dasharray:none;stroke-opacity:1"
           d="m 409.2833,179.8815 v 12.2081 m -8.1003,-13.2101 v 10.135 m -9.2066,-27.4123 v 17.5695 m -10.2087,-6.5809 v 9.1935 m -11.8522,-20.927 v 14.3198 m -14.846,-20.5469 v 14.3725 m -19.2725,-17.451 v 13.8957 m 69.3543,21.4269 h 10.5514 m -18.945,-2.2994 h 11.0633 m -20.9094,-12.3104 h 12.039 m -22.731,5.3109 h 12.2752 m -25.3217,-8.1772 h 13.787 m -29.7976,-6.4008 h 15.1086 m -36.5915,-3.5694 h 18.6188 m -49.6226,-0.0231 h 25.4677 m -59.6664,5.2482 h 26.7455" /></g></g></g>

    <!-- BICEP2/Keck BB upper bounds -->
    <g id="g3272">
      <g clip-path="url(#clipPath3278)" id="g3274"><path
         id="path3280"
         style="fill:#87ceeb;fill-opacity:1;fill-rule:nonzero;stroke:none"
         d="m 336.6423,471.3735 2.3907,4.7814 h -4.7814 z" /><path
         id="path3282"
         style="fill:#87ceeb;fill-opacity:1;fill-rule:nonzero;stroke:none"
         d="m 367.5546,466.3557 2.3908,4.7814 h -4.7815 z" />
      </g>
    </g>

    <!-- Main plot -->
    <g id="g154">
      <g clip-path="url(#clipPath160)" id="g156">
        <g transform="matrix(0.95609,0,0,0.95609,72,316.341)" id="g1220"><text
           id="text1224"
           style="font-variant:normal;font-weight:normal;font-size:12px;font-family:'Source Sans Pro',Helvetica,sans-serif;fill:#87ceeb;fill-opacity:1;fill-rule:nonzero;stroke:none"
           transform="matrix(1,0,0,-1,287.664,175.36)"><tspan
             id="tspan1222"
             y="0"
             x="0">B</tspan></text>
          <text
           id="text1228"
           style="font-variant:normal;font-weight:normal;font-size:10px;font-family:'Source Sans Pro',Helvetica,sans-serif;fill:#87ceeb;fill-opacity:1;fill-rule:nonzero;stroke:none"
           transform="matrix(1,0,0,-1,295.853312,175.36)"><tspan
             id="tspan1226"
             y="0"
             x="0 3.0844417 8.6555653 14.561434">ICEP</tspan></text>
        </g>
        <g transform="matrix(0.95609,0,0,0.95609,72,316.341)" id="g1230"><text
           id="text1234"
           style="font-variant:normal;font-weight:normal;font-size:12px;font-family:'Source Sans Pro',Helvetica,sans-serif;fill:#87ceeb;fill-opacity:1;fill-rule:nonzero;stroke:none"
           transform="matrix(1,0,0,-1,316.690894,175.36)"><tspan
             id="tspan1232"
             y="0"
             x="0 6.109106 10.0782325 18.136037 24.017996 29.146776">2/Keck</tspan></text>
        </g>
      </g>
    </g>
  </g>
</svg>
