<?xml version="1.0" encoding="UTF-8" standalone="no"?>
<svg
   xmlns:dc="http://purl.org/dc/elements/1.1/"
   xmlns:cc="http://creativecommons.org/ns#"
   xmlns:rdf="http://www.w3.org/1999/02/22-rdf-syntax-ns#"
   xmlns:svg="http://www.w3.org/2000/svg"
   xmlns="http://www.w3.org/2000/svg"
   xmlns:xlink="http://www.w3.org/1999/xlink"
   viewBox="0 0 459.20239 316.88052"
   height="100%"
   width="100%"
   xml:space="preserve"
   id="svg2"
   version="1.1">
  <metadata id="metadata8">
    <rdf:RDF>
      <cc:Work rdf:about="">
        <dc:format>image/svg+xml</dc:format>
        <dc:type rdf:resource="http://purl.org/dc/dcmitype/StillImage" />
      </cc:Work>
    </rdf:RDF>
  </metadata>

  <g transform="matrix(1.3333333,0,0,-1.3333333,-204.12547,891.96867)" id="g5">
    <g id="g156" transform="matrix(63.1197,0,0,178.0796,244.422,467.868)"><path
       id="path8492"
       style="opacity:0.75;fill:#aabbf3;stroke-width:0.00226371"
       d="m 0.00143189,0.01448787 c 0.00124466,0.0079683 0.00407212,0.04845014 0.00628325,0.08995957 0.00380452,0.0714222 0.00955336,0.10759934 0.01919903,0.1208183 0.0037946,0.0052 0.01140227,0.007117 0.02305114,0.005806 0.0057445,-6.4624e-4 0.0070749,-8.383e-5 0.0071008,0.003002 5.689e-5,0.006766 0.01854142,0.0853851 0.02525714,0.1074245 0.0057147,0.0187544 0.0076632,0.0218962 0.01567137,0.0252695 0.0050299,0.002119 0.01222477,0.003852 0.01598864,0.003852 0.008711,0 0.009788,0.00217 0.0170578,0.0343666 0.0166552,0.0737602 0.0237718,0.0931434 0.0377767,0.10289118 0.008006,0.005572 0.0165087,0.0314048 0.0289028,0.0878096 0.0126071,0.0573742 0.017894,0.0682123 0.0346639,0.0710612 0.009428,0.001602 0.0101173,0.0025 0.0160352,0.0208992 0.003401,0.0105741 0.008876,0.0319359 0.0121667,0.0474707 0.00883,0.0416867 0.0142231,0.054286 0.0278305,0.0650185 0.0126743,0.009997 0.0177747,0.0220387 0.0289965,0.0684615 0.006773,0.0280176 0.0145791,0.0475665 0.0220653,0.0552561 0.004,0.004108 0.008003,0.005687 0.0168281,0.006634 0.010807,0.00116 0.012294,0.002149 0.0222786,0.0148209 0.0210244,0.0266827 0.0475906,0.0398662 0.0803347,0.0398662 0.0137151,0 0.0169468,-5.534e-4 0.0216427,-0.003706 l 0.00552,-0.003706 0.004372,0.004043 c 0.002404,0.002224 0.0103325,0.007227 0.0176182,0.0111186 L 0.52131905,1 h 0.0281249 c 0.0194554,0 0.0290622,-5.5652e-4 0.0311656,-0.001805 0.001672,-9.9299e-4 0.0123921,-0.002358 0.0238216,-0.003032 0.0256091,-0.001512 0.032464,-0.00463 0.0477305,-0.0217082 0.005833,-0.006525 0.0175163,-0.0174736 0.0259634,-0.0243301 0.0142701,-0.011583 0.0161354,-0.0124663 0.0263237,-0.0124663 0.0163949,0 0.0313156,-0.006045 0.0367446,-0.0148876 0.0227509,-0.0370547 0.0727033,-0.21230572 0.0875665,-0.30721484 0.015857,-0.10125472 0.0215581,-0.12252917 0.0341041,-0.12726267 0.009471,-0.003573 0.0169415,-0.0151354 0.0248785,-0.0385055 0.003399,-0.0100067 0.010279,-0.0236523 0.01529,-0.0303235 0.0102438,-0.0136378 0.0143459,-0.0276359 0.0229064,-0.0781671 0.003265,-0.0192722 0.0101036,-0.0502022 0.0151971,-0.0687332 0.0100395,-0.036525 0.0137758,-0.0547121 0.0227032,-0.11051213 0.006397,-0.0399809 0.0128332,-0.0707174 0.015079,-0.07200539 0.002951,-0.0016923 0.0131384,-0.03909264 0.0152613,-0.05602695 0.001208,-0.0096361 0.00318,-0.02100741 0.004382,-0.02526954 L 1.0007467,0 H 0.49995776 -8.3114156e-4 Z" />
    </g>
    <g id="g152" transform="matrix(55.6798,0,0,178.0796,304.182,467.868)"><path
      id="path8503"
      style="opacity:0.75;fill:#aabbf3;stroke-width:0.00241021"
      d="m 0.00170038,0.00707547 c 0.00127638,0.00389151 0.00342679,0.01495957 0.0047787,0.02459569 0.0013519,0.0096361 0.00523123,0.02995283 0.00862074,0.04514825 0.0033895,0.01519541 0.0091652,0.04764151 0.01283492,0.07210242 0.0071977,0.0479775 0.01234573,0.0617411 0.02440711,0.0652546 0.008473,0.002468 0.01122624,0.0107941 0.02321025,0.0701902 0.0080826,0.0400594 0.01375772,0.0606992 0.01887708,0.0686533 0.0041643,0.00647 0.01487758,0.00997 0.02687619,0.008779 0.009153,-9.0827e-4 0.0108888,0.001827 0.0145784,0.0229722 0.004319,0.0247521 0.0151481,0.0600337 0.0215015,0.070053 0.0033,0.005204 0.008931,0.0137147 0.0125135,0.0189127 0.008222,0.0119297 0.0132383,0.0294351 0.0239391,0.083541 0.0117791,0.0595587 0.0161317,0.0725228 0.0280538,0.083558 0.011957,0.0110675 0.01251,0.0126518 0.0237873,0.0681518 0.0101662,0.050032 0.0139135,0.0603342 0.0255035,0.0701151 0.0112553,0.009498 0.0157251,0.019081 0.0241435,0.0517601 0.003819,0.0148248 0.008635,0.0307914 0.0107033,0.0354813 0.003978,0.009023 0.0134202,0.0150578 0.0235573,0.0150578 0.003361,0 0.007172,5.3641e-4 0.008468,0.001192 0.001296,6.5561e-4 0.006334,0.0111172 0.0111959,0.023248 0.0114228,0.0285012 0.018082,0.0369417 0.0407931,0.0517055 0.0102622,0.006671 0.0218201,0.0156405 0.0256843,0.0199318 0.004914,0.005457 0.009901,0.008212 0.016592,0.009165 0.005261,7.4956e-4 0.0131358,0.004061 0.0174986,0.007359 L 0.45775047,1 h 0.0273459 c 0.0216474,0 0.0285196,-5.1711e-4 0.0329782,-0.002482 0.007219,-0.00318 0.0188373,-0.005022 0.0387777,-0.006147 0.00948,-5.3474e-4 0.0199262,-0.002376 0.0258621,-0.004557 0.006937,-0.00255 0.0132988,-0.003539 0.0209696,-0.003259 0.0167902,6.1151e-4 0.0318716,-0.004071 0.0425204,-0.0132031 0.005265,-0.004515 0.0149715,-0.0101527 0.0215695,-0.0125283 0.006598,-0.002376 0.0142231,-0.005645 0.0169447,-0.007266 0.003223,-0.001919 0.009827,-0.003094 0.0189384,-0.003369 0.0111309,-3.359e-4 0.0154697,-0.001386 0.0212289,-0.005139 0.003981,-0.002594 0.008508,-0.006966 0.0100594,-0.009715 0.001651,-0.002926 0.005808,-0.005294 0.0100261,-0.005713 0.0122474,-0.001215 0.017446,-0.005435 0.0265181,-0.0215239 0.00605,-0.0107296 0.0118947,-0.0169695 0.0189312,-0.0202115 0.0109005,-0.005022 0.0150998,-0.0120818 0.0261999,-0.0440446 0.0035,-0.0100777 0.008418,-0.0200126 0.0109284,-0.0220774 0.008464,-0.006961 0.0123822,-0.0147583 0.0193161,-0.0384404 0.009384,-0.0320518 0.0180209,-0.0525319 0.0257191,-0.0609888 0.008602,-0.009449 0.0157666,-0.0311436 0.0519649,-0.15733999 0.0152901,-0.0533053 0.025143,-0.11800081 0.0409473,-0.26886793 0.004814,-0.0459569 0.0115923,-0.10296495 0.0150623,-0.12668463 0.00347,-0.0237197 0.008265,-0.0643531 0.0106565,-0.0902965 0.002391,-0.02594339 0.0053,-0.05368935 0.006465,-0.06165768 L 0.99979815,0 H 0.49958892 -6.203131e-4 Z" />
    </g>
    <g id="g160" transform="matrix(67.4396,0,0,177.1205,379.062,467.868)"><path
      id="path8505"
      style="opacity:0.75;fill:#aabbf3;stroke-width:0.00219593"
      d="M -2.2026577e-6,0.00711382 C -3.4141194e-6,0.01102642 0.00160731,0.03495935 0.00357717,0.0602981 0.00862478,0.12522631 0.01549295,0.15999882 0.0267279,0.17750678 c 0.0026303,0.004099 0.0059115,0.0117209 0.0072915,0.0169377 0.00138,0.005217 0.0040139,0.0110095 0.005853,0.0128726 0.0087562,0.008871 0.01360709,0.024419 0.02590449,0.0830308 0.01205179,0.0574412 0.01457426,0.0660963 0.02095874,0.0719144 0.0045644,0.004159 0.0071554,0.004946 0.01628567,0.004946 0.007371,0 0.0108577,6.6541e-4 0.0108577,0.002072 0,0.0163953 0.0201218,0.0971334 0.0273438,0.1097165 0.002994,0.005217 0.007648,0.0132904 0.0103407,0.0179413 0.005707,0.009856 0.0132836,0.0381358 0.0209678,0.0782647 0.008897,0.0464638 0.0126248,0.0585579 0.0246396,0.0799458 0.002931,0.005217 0.008662,0.0213753 0.0127359,0.0359079 0.004074,0.0145325 0.012141,0.0364837 0.0179264,0.0487805 0.005785,0.0122967 0.0145615,0.0379065 0.0195025,0.0569106 0.010211,0.0392738 0.0132964,0.0461426 0.0237282,0.0528251 0.0113124,0.007247 0.012937,0.0103354 0.0242417,0.0460909 0.0117837,0.0372704 0.0164846,0.0447559 0.0334088,0.053198 0.006586,0.003285 0.0153407,0.0103477 0.0198078,0.0159787 0.004403,0.00555 0.0100803,0.0110062 0.0126161,0.0121241 0.002536,0.001118 0.009559,0.0058 0.0156079,0.0104036 C 0.388571,0.99636924 0.39875132,1 0.4121642,1 0.4212422,1 0.439624,0.995746 0.4485606,0.991577 c 0.005381,-0.00251 0.005644,-0.002505 0.0121174,2.1836e-4 0.003639,0.001531 0.0101244,0.002784 0.0144109,0.002784 0.004287,0 0.0106922,0.00122 0.0142349,0.00271 0.007005,0.002947 0.0229857,0.00356 0.0340466,0.001306 0.003789,-7.7201e-4 0.0109166,-0.004431 0.0158402,-0.00813 0.004924,-0.0037 0.0111408,-0.006726 0.013816,-0.006726 0.002675,0 0.0105129,-0.002381 0.0174169,-0.00529 0.006904,-0.00291 0.0157437,-0.005676 0.0196437,-0.006147 0.007998,-9.6653e-4 0.0151314,-0.006118 0.0234861,-0.0169596 0.003134,-0.004067 0.009597,-0.009555 0.0143626,-0.0121951 0.004765,-0.00264 0.0117424,-0.009204 0.0155048,-0.0145866 0.004869,-0.006966 0.009864,-0.0108708 0.0173315,-0.0135501 0.0183887,-0.006598 0.0334367,-0.0338847 0.0545298,-0.0988808 0.0300945,-0.0927334 0.0465814,-0.16268315 0.0657277,-0.27886685 0.0143934,-0.0873419 0.0202212,-0.11344189 0.0320711,-0.14363143 0.00468,-0.0119241 0.0110586,-0.0317412 0.0141738,-0.0440379 0.006385,-0.0252024 0.006985,-0.0268577 0.0162086,-0.0447154 0.003657,-0.00708 0.007713,-0.0183604 0.009014,-0.0250678 0.001457,-0.007515 0.0302175,-0.0629536 0.074934,-0.1444443 C 0.96734388,0.06262896 1,0.00241554 1,0.00155841 1,3.9126016e-4 0.87446698,0 0.5,0 H 0 Z" />
    </g>
    <g id="g648" transform="translate(150.342,428.474)"><circle
       id="path646"
       style="fill:#aabbf3;fill-opacity:0.75"
       cx="79.21405" cy="229.8169" r="4.2" />
    </g>
    <g id="g654" transform="translate(150.342,428.474)"><text
       id="text658"
       style="font-variant:normal;font-weight:normal;font-size:8px;font-family:'Source Sans Pro',Helvetica,sans-serif;writing-mode:lr-tb;fill:#aabbf3;fill-opacity:1;fill-rule:nonzero;stroke:none"
       transform="matrix(1,0,0,-1,90.014,226.114)">SPIDER</text><text
       id="text659"
       style="font-variant:normal;font-weight:normal;font-size:10px;font-family:'Source Sans Pro',Helvetica,sans-serif;writing-mode:lr-tb;fill:#244fe1;fill-opacity:1;fill-rule:nonzero;stroke:none"
       transform="matrix(1,0,0,-1,121.014,50.114)">94</text><text
       id="text660"
       style="font-variant:normal;font-weight:normal;font-size:10px;font-family:'Source Sans Pro',Helvetica,sans-serif;writing-mode:lr-tb;fill:#244fe1;fill-opacity:1;fill-rule:nonzero;stroke:none"
       transform="matrix(1,0,0,-1,175.014,50.114)">150</text><text
       id="text661"
       style="font-variant:normal;font-weight:normal;font-size:10px;font-family:'Source Sans Pro',Helvetica,sans-serif;writing-mode:lr-tb;fill:#244fe1;fill-opacity:1;fill-rule:nonzero;stroke:none"
       transform="matrix(1,0,0,-1,255.014,50.114)">285</text>
    </g>
  </g>
</svg>