<?xml version="1.0" encoding="UTF-8" standalone="no"?>
<svg
   xmlns:dc="http://purl.org/dc/elements/1.1/"
   xmlns:cc="http://creativecommons.org/ns#"
   xmlns:rdf="http://www.w3.org/1999/02/22-rdf-syntax-ns#"
   xmlns:svg="http://www.w3.org/2000/svg"
   xmlns="http://www.w3.org/2000/svg"
   viewBox="0 0 567.72107 342.03174"
   height="100%"
   width="100%"
   xml:space="preserve"
   id="svg2"
   version="1.1">
  <metadata id="metadata8">
    <rdf:RDF>
      <cc:Work rdf:about="">
        <dc:format>image/svg+xml</dc:format>
        <dc:type rdf:resource="http://purl.org/dc/dcmitype/StillImage" />
      </cc:Work>
    </rdf:RDF>
  </metadata>
  <defs id="defs6">
    <clipPath id="clipPath14" clipPathUnits="userSpaceOnUse"><path
       id="path12"
       d="M 0,0 H 612 V 792 H 0 Z" />
    </clipPath>
    <clipPath id="clipPath1360" clipPathUnits="userSpaceOnUse"><path
       id="path134"
       d="M 123.6904,353.1703 H 497.1442 V 573.4561 H 123.6904 Z" />
    </clipPath>
  </defs>

  <g clip-path="url(#clipPath14)" transform="matrix(1.3333333,0,0,-1.3333333,-101.34387,771.112)" id="g25">
    <!-- SPIDER Total -->
    <g id="g130">
      <g clip-path="url(#clipPath1360)" id="g132">
        <g transform="matrix(0.95609,0,0,0.95609,72,316.341)" id="g138"><path
           id="path140"
           style="fill:none;stroke:#ff6347;stroke-width:4;stroke-linecap:square;stroke-linejoin:round;stroke-miterlimit:10;stroke-dasharray:none;stroke-opacity:1"
           d="m 152.1351,97.65103 c 57.52579,19.57489 115.17925,38.92583 171.6697,61.35925 36.76773,14.71934 73.05635,33.11425 101.17417,61.60248 7.01776,6.92637 13.60526,14.27596 19.93023,21.83664" />
        </g>
        <g transform="matrix(0.9040118,0.3112838,-0.3112838,0.9040118,105.1452,271.9437)" id="g1104"><text
           id="text1108"
           style="font-variant:normal;font-weight:bold;font-size:17.2154007px;font-family:'Source Sans Pro',Helvetica,sans-serif;fill:#ff6347;fill-opacity:1;fill-rule:nonzero;stroke:none"
           transform="matrix(1,0,0,-1,186.072,105.368)"><tspan
             id="tspan1106"
             y="0"
             x="0">S</tspan></text>
          <text
           id="text1112"
           style="font-variant:normal;font-weight:bold;font-size:15.2154007px;font-family:'Source Sans Pro',Helvetica,sans-serif;fill:#ff6347;fill-opacity:1;fill-rule:nonzero;stroke:none"
           transform="matrix(1,0,0,-1,195.74404,105.368)"><tspan
             id="tspan1110"
             y="0"
             x="0 9.038085 13.686243 23.533451 32.244446">PIDER</tspan></text>
        </g>
      </g>
    </g>
  </g>
</svg>